<svg xmlns="http://www.w3.org/2000/svg" viewBox="0 0 2151.24 742.87"><path d="M1278.01 351.13c.04.39.19.81.48 1.28.07.03.13.07.18.13l-.45-1.51c-.06.03-.14.07-.21.1"/><path d="M1657.26 311.87c1.19-1.08 1.74-2.73 2.03-4.47 1.91-11.27 6.33-21.8 9.61-32.67 2.63-8.73 5.29-17.65.26-26.7-1.51-2.71-3.02-4.05-6.11-5.06-6.64-2.15-13.65-1.18-20.32-3.35-2.9-.94-7.19-.83-10.22 1.07-10.63 6.69-21.49 13.12-31.48 20.69-13.11 9.93-24.29 22.05-35.07 34.48-.77.89-1.88 1.77-2.09 2.81-1.74 8.56-7.98 14.33-13.95 19.33-11.04 9.26-21.25 19.85-34.89 25.7-5.19 2.22-9.9 5.46-14.94 7.93-5.62 2.75-11.13 6.69-18.21 5.49.73-3.14 3.15-4.37 5.21-5.9 2.17-1.61 3.84-3.51 4.56-6.19 1.29-4.83 3.11-9.58 3.84-14.49.72-4.85 3.2-10.66-3.8-13.57-.99-.41-.95-1.5-1.22-2.41-2.65-8.84-11.18-10.76-17.76-14.96-1.06-.68-2.23.19-3.35.65-3.52 1.44-7.03 3.02-10.68 4.02-6.42 1.76-11.89 5.37-16.31 9.89-7.77 7.94-18.21 10.02-27.58 14.82-.9-5.11-1.01-8.07.74-9.89 5.77-6.01 4.68-14.05 6.53-21.18.86-3.35-3.08-12.75-5.37-15.1-5.33-5.46-9.47-6.22-16.75-3.22-2.38.98-4.67 2.15-7.07 3.11-8.79 3.51-18.08 6.56-24.85 13.52-7.97 8.17-19.29 12.15-26.19 21.54-.38.51-1.23.66-1.82 1.04-7.69 5.02-16.07 8.92-23.4 14.51-1.23.94-2.7.88-4.09 1.05-3.37.41-4.45-.89-3.31-4 1.21-3.3 3.02-6.34 4.37-9.62 3.02-7.35 3.36-15.73 9.34-22.57-3.47-.28-5.08-1.87-6.55-4.23-1.75-2.81-3.75-5.44-5.23-8.47-3.2-6.56-5.71-7.23-12.53-5.21-5.67 1.68-9.78 5.79-14.58 8.72-10.57 6.44-20.74 13.84-28.25 23.8-5.74 7.61-11.01 15.47-18.83 21.15-1.72 1.25-3.16 3.39-1.9 4.79 2.8 3.11-.03 5.38-.65 7.76-.93 3.6-7.05 6.33-10.29 4.62-2.6-1.37-4.76-.85-6.66.46-7.77 5.38-16.81 5.42-25.63 6.53-4.71.59-9.39 1.75-14.1 1.92-4.62.16-8.14 4.66-13.08 2.93-3 4.05-7.66 3.19-11.76 3.9-13.55 2.35-27.35 2.99-40.85 5.75-5.34 1.09-10.65 2.44-16.14.05-1.55-.67-3.82-.19-5.62.3-16.1 4.35-32.57 2.12-48.87 2.93-1.83.09-3.78.26-5.28-.69 2.16-5.14 5.31-9.31 10.72-11.38.68-.26 1.17-1.5 1.41-2.37.62-2.2 2.25-3.6 3.74-5.12 5.32-5.46 11.08-10.36 17.85-13.96 1.9-1.01 3.65-2.09 5.32-3.51 7.4-6.33 14.75-12.73 23.34-17.51 3.09-1.72 6.68-3.42 8.25-6.52 1.4-2.75 3.38-4.23 5.53-6.09 4.18-3.6 9.06-6.14 13.32-9.59 5.55-4.49 11.28-8.77 17.02-13.03 5.73-4.26 11.31-8.81 17.43-12.44 5.95-3.52 11.11-8.09 16.7-12.01 5.53-3.89 11.1-8.1 16.07-12.91 6.36-6.15 11.47-13.42 20.44-16.97 9.02-3.58 14.81-12.24 22.71-17.87 8.31-5.91 14.82-13.91 23.18-19.98 9.62-6.99 11.15-22.02 2.03-30.44-1.23-1.13-2.83-2.36-2.65-4.08.6-5.94-3.45-10.86-3.4-16.66.02-2.02-.96-4.27-3.13-4.09-4.21.34-4.39-2.73-5.46-5.28-2.04-4.87-3.97-9.84-10.81-9.19-1.7.16-3.03-1.24-4.47-2.06-6.25-3.57-13.23-5.21-20.11-6.77-3.26-.74-6.82 1.21-10.45.77-10.32-1.26-20.66-2.39-31.02-3.34-8.96-.82-17.72-3.67-26.9-2.45-2.3.31-4.72-.45-7.1-.51-5.27-.12-10.24-2.41-15.41-2.42-9.06-.03-17.89-2.02-26.9-2.41-8.98-.39-17.84-2.88-26.87-2.52-7.65.3-15.23-.79-22.84-.51-2.39.09-4.14-2.74-5.77-1.86-3.56 1.9-6.92 1.01-10.44.66-3.99-.41-5.14 1.25-3.28 4.95.48.95 2.1 1.54.92 2.81-2.59 2.78-3.97 6.85-7.34 8.6-4.49 2.32-6.62 5.86-7.64 10.46-.26 1.19-.69 2.64-1.94 2.74-3.65.31-3.69 2.89-4.11 5.54-.39 2.47-.55 4.92-2.67 7.05-1.51 1.52-2.31 4.13-1.91 6.66.19 1.2.64 3.11 1.58 2.86 4.79-1.24 7.47 3.64 11.75 3.66 20.02.07 39.87 3.19 59.92 3.06 4.64-.03 10-1.13 13.92 1.63 2.6 1.82 4.49 1.77 7.09 1.41 2.1-.29 4.28-.2 6.41-.11 14.98.68 29.9 2.18 44.84 3.29 9.05.68 18.04 1.45 26.96 3.1 3.75.7 7.56 2.12 9.91 4.66 1.83 1.98 2.37 4.42 5.79 3.18 1.34-.48 1.31.92 1.39 1.79.21 2.41-.88 4.09-3.01 5.19-4.05 2.1-7.52 4.74-10.5 8.4-3.14 3.86-7.45 6.63-12.57 7.76-3.31.73-6.88 1.36-5.42 6.35.5 1.72-1.15 2.4-2.24 3.25-6.84 5.31-12.39 12.08-20.12 16.51-5.06 2.9-8.6 8.15-12.98 12.05-10.98 9.8-22.86 18.58-34.17 28.02-4.23 3.53-9.76 5.56-13.23 9.48-4.33 4.88-9.57 8.36-14.28 12.6-4.82 4.35-10.77 7.07-15.52 11.28-4.98 4.41-10.31 8.12-15.85 11.69-3.18 2.05-7.71 2.8-8.09 7.98-.07.97-2 1.89-3.18 2.67-15.28 10.02-29.89 20.95-44.34 32.1-3.71 2.86-8.04 4.83-12.3 6.95-6.13 3.05-11.37 7.89-16.99 11.97-.99.72-1.8 1.6-1.73 2.92.13 2.3-1.59 3.95-2.11 5.9-1.69 6.39-2.96 12.8-1.95 19.63 1.18 7.95 8.39 11.16 12.26 16.96 2.02 3.02 6.77.71 10.26.97 3.55.26 7.15-.26 10.7.01 9.71.75 19.72-2.16 29.14 2.5 1.07.53 2.81-.08 4.19-.38 18.44-4 37.24-5.24 55.91-7.5 9.18-1.11 18.43-.45 27.64-1.95 28.9-4.72 57.77-9.56 86.42-15.6 13.47-2.84 27.03-5.55 40.16-9.84.63-.21 2.67-.32 1.78-.95-3.04-2.16-.43-2.37.77-2.83 4.02-1.55 8.24-2.18 12.51-2.76 4.33-.59 5.51-2.03 4.52-6.16-.97-4.03.86-6.85 2.68-9.94 2.13-3.61 6.09-6.21 5.97-11.1-.04-1.76 2.03-1.74 3.02-2.66 4.34-4.03 11.02-4.51 14.56-9.93.92-1.41 3.41-.94 5.14.04-2.44 8.15-2.13 10.61 1.06 18.64 1.39 3.49 3.65 6.38 5.37 9.59 3.16 5.89 5.3 7.36 11.57 6.58 5.94-.75 11.6-2.59 17.38-3.99 11.78-2.85 22.37-8.11 31.77-15.66 3.54-2.84 7.04-5.62 11.1-7.66.43-.16.98-.57 1.25-.43.88.44.52 1.16.13 1.8-3.55 12.29-4.94 25.12-9.39 37.18-.16.44-.22.93-.3 1.4-1.06 5.84 2.42 11.44 8.14 12.1 5.89.67 11.58.24 17.16-2.87 12.96-7.21 25.12-15.55 36.65-24.76 5.28-4.22 11.84-7.08 15.34-13.44.77-1.4 2.31-2.41 4.13-2.55 2.78-.22 4.38-1.4 5.7-4.2 1.04-2.21 3.95-3.75 7.19-2.68-1.25 2.66-4.45 3.99-4.09 6.86.45 3.61 4.71.74 6.38 3.08-2.13 4.03-4.14 8.08-6.39 11.98-1 1.72-1.72 3.46-1.57 5.39.4 5.21-2.4 9.55-4.46 13.77-3.55 7.27-4.03 7.11 4 9.94.88.31 1.67 1.03 2.56 1.15.87.12 2.34.01 2.64-.51 3.25-5.69 9.46-5.46 14.39-6.18 10.99-1.6 21.09-5.42 31.31-9.33 6.38-2.43 12.56-5.63 19.72-5.87 3.25-.11 6.45-1.59 9.43-3.16 6.53-3.44 13.05-6.89 19.6-10.27 2.63-1.36 5.12-3.3 8.39-2.86.77 12.2.46 14.3-4.95 24.1-1.95 3.54-3.16 7.39-1.83 10.94 1.73 4.64 1.78 9.19 1.85 13.93.05 3.6.7 7.52 4.02 9.5 5.3 3.17 10.91 7.4 16.73.59.43-.51 1.21-.78 1.88-1.01 6.68-2.36 11.89-6.83 17.06-11.48 7.06-6.36 12.74-14.26 21-19.24 5.07-3.06 10.02-6.1 13.41-11.17.59-.88 2.11-.97 3.49-.62.31 2.84-.08 5.59-1.36 8.23-1.26 2.58-2.02 5.32-2.73 8.11-3.37 13.11-5.79 26.51-11.39 38.95-3.24 7.2-5.29 14.76-7.34 22.34 4.51-.1 4.4-.11 4.23 3.82-.28 6.78-3.67 12.48-6.21 18.47-.5 1.18-1.97 1.02-3.14.96-1.21 6.29-2.1 12.67-5.07 18.49-.53 1.03-.99 2.3-.9 3.42.56 6.83-1.63 13.34-3.88 19.34-2.45 6.54-3.86 13.19-5.55 19.85-.29 1.15-.35 2.52-1.03 3.4-4.48 5.85-4.66 12.79-5.52 19.66-.55 4.43-2.37 8.68-3.14 13.09-1.06 6.06-1.65 12.2-2.45 18.3-.78 5.98-3.38 11.51-3.3 17.81.08 6.35-2.03 12.71-2.17 19.09-.18 8.45-3.06 16.34-3.95 24.62-.89 8.24-6.11 15.14-7.88 23.17-.34 1.52-1.45 3.13-2.66 4.14-4.55 3.77-8.53 7.73-8.4 14.27.01.77-.76 1.73-1.42 2.32-4.71 4.19-5.59 9.61-5.38 15.53.11 3.06-.25 5.95-2.03 8.83-2.8 4.53.51 13.68 5.27 15.9 6.88 3.21 14.12 2.72 21.37 1.97 1.27-.13 2.04-1.05 2.81-2 4.42-5.44 9.92-9.85 13.96-15.73 4.66-6.8 6.24-14.81 8.82-22.2 3.32-9.48-.57-20.67 5.1-30.16.42-.7.15-1.89 0-2.82-.52-3.37.22-6.6.74-9.91 1.34-8.47 3.18-16.81 5.1-25.15.94-4.05 1.93-7.93.34-12.48-.92-2.65-2.73-7.31 1.47-10.16.79-.54.71-1.75.16-2.62-3.5-5.58-1.49-11.51.61-16.38 2.55-5.93 4.48-11.98 6.48-18.05 1.37-4.16 2.8-8.12-.34-12.17-.9-1.16-.21-2.78-.02-4.18.42-3.07.85-6.14 1.31-9.2.83-5.57.54-11.52 5.96-15.43.93-.67 1.1-2.56 1.4-3.94 1.01-4.65 1.78-9.35 2.89-13.98 2.38-9.95 3.34-20.17 6.01-30.1 1.27-4.71 4.6-8.07 5.69-12.81 1.85-8.02 2.27-16.34 5.31-24.14 1.98-5.09 2.91-10.57 4.72-15.74 3.58-10.24 2.36-21.87 9.06-31.2.25-.35.17-.93.3-1.39 2.42-8.68 4.01-17.53 8.33-25.72 4.23-8.04 4.01-18.07 10.69-25.19.59-.63.9-1.77.88-2.66-.19-8.29 4.21-15.53 5.28-23.54.57-4.28 1.92-8.3 5.33-11.39v-.03Zm-170.9 22.6c.08-.66.41-1.41 1.31-1.1.69.23 1.01.85.98 1.87-.31.32-.73 1.14-1.2 1.17-1.38.08-1.19-1.09-1.08-1.94zm-289.47-165.95c3.76-2.18 7.77-3.19 12.13-2.52-3.68 2.56-7.79 3.1-12.13 2.52m3.69-13.15c.72-.16 1.39-.08 1.68.78-.03.8-.42 1.31-1.22 1.43-.72.1-1.57.04-1.71-.76-.12-.71.5-1.28 1.25-1.44Zm3.47 36.08c.14-.56.76-1.15 1.32-1.43.61-.32 1.6-.19 1.72.57.17 1.1-.79 1.6-1.63 1.93-.91.1-1.61-.21-1.4-1.06Zm-1-10.25c-.29-.08-.67-.7-.6-.97.18-.73.86-1.02 1.53-.82.29.08.44.65.65 1-.32.69-.92.99-1.59.8Zm-1.83 23.34c3.3-4.35 5.23-5.77 11.77-7.6-3.62 2.34-7.23 4.67-11.77 7.6m21.42-22.35c.21-.3.8-.51 1.15-.44.23.04.33.68.49 1.05-.33.23-.66.66-.98.65-.8-.03-1.18-.55-.66-1.26m12.45 17.68c-3.65 2.02-7.33 3.96-11 5.93 2.55-3.98 5.88-6.56 9.5-8.76.97-.59 1.93-.11 2.48.67.77 1.08-.21 1.73-.98 2.16m13.71-19.85c.16-1.18.56-2.38 2.03-2.26 1.09.09 1.35 1.17 1.43 2.1.1 1.21-.35 2.16-1.06 2.64-1.92-.31-2.59-1.1-2.4-2.48m2.52 9.31c-3.12 3.9-7.34 5.1-11.04 7.75 2.63-9.37 4.22-10.52 11.04-7.75m-9.18-39.67c3.48.65 4.34 3.73 4.33 6.27-.01 2.87-2.78 2.49-5.37 2.2.19-2.81-.66-5.6 1.04-8.48Zm2.2 19.04c.26 0 .82.65.76.81-.66 1.69-1.93 2.34-4.16 1.94.75-2.12 1.92-2.73 3.4-2.75m-2.99 13.08c-.29.32-.52.77-.88.91-.74.29-1.28-.04-1.12-.87.06-.28.64-.63.99-.64.33 0 .67.38 1.01.6m-1.53-16.04c-.23.71-.89 1.01-1.65 1.01-.22-.38-.67-.81-.61-1.14.15-.78.84-1.14 1.58-.88.32.11.76.75.68 1.01m-8.57-25.83c.32-.72.97-1.05 1.67-.87 3.07.81 5.87 1.95 6.1 5.78-2.34-1.05-4.7-2.06-7-3.18-.6-.29-1.14-.89-.76-1.73zm.48 7.12c.63.15 1.42.37 1.14 1.14-.25.71-1.11.69-1.76.45-.39-.14-1.03-.6-.98-.78.19-.76.91-.83 1.59-.82h.01Zm-10.28 27.41c2.14-.8 4.3-1.1 6.77-.14-1.72 2.57-4.05 2.75-6.3 3.01-.69.08-1.29-.46-1.43-1.22-.14-.78.32-1.41.96-1.66Zm-12.49 10.9c2.28-1.45 4.72-2.2 7.32-2.27-1.83 2.91-4.04 3.19-7.32 2.27m3.95-54.91c-5.38 3.04-9.5-.39-14.54-2.21 5.58-1.4 9.77 2.07 14.54 2.21m-8.31 18.95c-3.66 3.52-7.1 2.81-10.65.89 3.23-2.1 6.55-2.77 10.65-.89m-194.71.05c.89-3.99 1.55-6.41 3.93-5.03 2.93 1.71 6.04 1.75 9.96 1.95-4.58 4.77-9.23-1.48-13.89 3.08m41.05-39.25c-4.11.95-8.33-.22-12.43.89 4.02-2.81 8.26-1.06 12.43-.89m-14.78 31.64c.73-1.59 2.07-1.37 3.33-.46-1.11.15-2.22.31-3.33.46m13.57 5.06c-.89-.05-1.77-.25-4.02-.6 2.04-1.21 2.77-1.75 3.57-2.1 1.4-.61 2.88-.74 2.97 1.28.07 1.58-1.4 1.49-2.52 1.42m-12.8-17.43c9.12-3.99 18.71-5.17 30.02-6.04-10.75 3.91-20.4 5.09-30.02 6.04m35.38 20.65c9.22-1.19 16.67.32 24.17.81 7.53.49 15.05 1.08 22.58 1.63l.15 1.41c-15.11-1.05-30.33-.65-46.9-3.85m52.04-29.34c1.69-1.32 3.24-1.26 4.78.34-.33 1.79-1.7 1.25-2.7 1.17-.84-.07-1.83-.22-2.08-1.51m14.03 25.8c2.11-1.37 3.71-.83 5.34.15-1.6.9-3.17.76-5.34-.15m-10.88-8.7c6.09-3.2 12.8-4.92 18.52-4.73-3.31 2.9-11.21 4.92-18.52 4.73m40.09-10.32c-4.91 3.45-7.36 4.1-14.31 3.38 5.04-3.21 9.8-3.08 14.31-3.38m-11.42 14.5c4.17-2.39 8.19-5.29 14.28-2.57-5.04 3.34-9.43 4.26-14.28 2.57m20.35 18.89c-.7-.25-.86-1.04-.62-1.71.13-.34.62-.8.93-.79.81.03 1.06.69 1.07 1.43-.25.63-.6 1.33-1.37 1.06h-.01Zm9.51-7.33c-.64-.22-.53-.82.17-.85 1.07-.05 2.26-.3 3.11.76-1.1.64-2.23.45-3.28.09m-8.51 73.15c-2.85 2.47-4.99 4.84-8.38 5.87 1.65-3.03 3.28-6.33 8.38-5.87m-30.74 41.96c-.77.98-1.27 2.34-2.97 2.05.17-1.87 1.64-1.84 2.91-2.11.24-.23.48-.46.73-.69-.22.25-.45.5-.67.75m11.97-10.47 1.1 1.01c-2.48 2.03-4.95 4.06-7.43 6.1l-.97-1.09c2.43-2 4.87-4.01 7.3-6.02m-10.97-27.12c.15-.67.15-1.41.48-1.96.47-.77 1.33-1.56 2.19-.8.93.83.13 1.62-.66 2.14-.57.38-1.21.63-1.82.94-.29.23-.58.47-.88.7-.58-.88.26-.81.69-1.03Zm5.49 20.43c-4.7 7.16-12.19 13.17-18.82 14.85 5.7-5.17 10.73-11.17 18.82-14.85m-106.28 94.22h.03v.02s-.01 0-.02-.01h-.01Zm62.88-68.73c-.17.58-.76 1.03-1.03 1.37-.84.22-1.41-.07-1.23-.53.22-.56.81-1.04 1.35-1.4.48-.32 1.06.03.9.56zm-3.1-14.16c.21-.36.62-.75 1-.81.54-.09.75.34.59.88-.35.27-.67.7-1.06.77-.54.1-.82-.35-.53-.84m-3.59 29.77c-1.44 4.62-5.65 6.15-8.56 9.1l-1.05-1.31c3.21-2.6 6.41-5.19 9.61-7.79m-5.75 13.84c2.3-2.29 4.5-4.93 8.12-5.6-7.98 6.43-13.75 15.59-24.17 19.01 3.82-6.27 11.07-8.47 16.05-13.41m-9.42.05-6.27 4.67c1.64-3.13 4.15-3.82 6.27-4.67m-6.76 13.47c-.71 2.03-3.48 2.37-3.87 4.67-.96-3.44 1.15-4.31 3.87-4.67m-3.37-24.83c-8.06 7.68-15.35 16.25-25.83 22.44 3.18-5.78 19.3-19.88 25.83-22.44m-22.2 33.95c.32-.58.52-1.26.97-1.71.65-.65 1.59-1.06 2.23-.1.19.29-.27 1.21-.66 1.65-.42.47-1.1.71-1.67 1.04-1.79 1.9-3.54 3.84-6.63 4.71 1.08-3.1 3.1-4.66 5.75-5.6h.01Zm-8.16 13.53c8.62-3.95 15.04-11.09 23.07-15.88 2.07-1.23 3.75-3.95 6.79-2.09-4.9 2.02-7.72 6.76-12.3 9.3-4.11 2.28-7.86 5.2-12.26 7.01-2.38.98-4.53 2.33-5.78 4.72-.35-1.11-.84-2.46.48-3.07Zm-.79 2.98c-.38-.2-.77-.4-1.15-.59.97-1.01.87.17 1.15.59m-85.28 26.14c-1.05 2.44-3.29 3.54-5.68 4.4.73-2.99 2.95-3.99 5.68-4.4m-14.76 18.65c-1.03-.14-1.83-.66-1.95-1.73-.16-1.43 3.02-5.36 4.28-5.19 2.03.27 2.09 2.33 2.72 3.7.36.78-3.56 3.19-5.05 3.21Zm8.97 19.49c-1.25 1.52-3.07-.84-5.05-2.73 5.88-1.25 11.13-2.37 17.75-3.78-4.72 3.21-9.63 2.76-12.7 6.51m29.15 1.25c-2.11.14-4.25-.2-6.37-.1-3.42.17-6.92-.71-9.85 2.54-1.49 1.65-4.28 1.44-7.56-1.24 8.67-2.13 15.99-3.96 23.33-5.72 1.13-.27 2.53-.48 2.57 1.36.03 1.49-.32 3.03-2.13 3.15Zm-3.02-15.38c3.38-3.12 10.16-5.64 17.76-6.52-5.81 2.19-11.18 5.29-17.76 6.52m.48-31.08c5.21-4.78 11.01-8.61 17.87-10.85-4.77 5.53-11.36 8.12-17.87 10.85m203.74 3.39s-.02.02-.03.04c0-.02.01-.03.02-.05v.02zm-30.3 3.8c6.25-1.3 12.59-2.35 18.95-2.97 2.22-.21 4.59-.97 6.9-.3-1.11 1.36-2.51 2.05-4.19 2.21-5.24.51-10.11 2.43-15.07 3.88-6.14 1.79-12.12 3.61-18.91.13 4.07-2.25 8.37-2.13 12.33-2.95zm-22.34 5.09a251.3 251.3 0 0 1-41.72 12.62c-2.76 2.09-6.13 1.79-9.32 2.42 1.78-2.03 3.85-3.34 6.55-3.41 14.18-6.36 28.89-10.69 44.49-11.63m-51.36 4.82c5.65-.55 11.31-1.11 16.96-1.66-5.25 3.64-10.94 4.89-16.98 4.62-.91-.04-2.02.21-2.22-1.07-.27-1.73 1.05-1.77 2.24-1.89m-43.25-27.89c.25.11.53.13.62.28.09.14.09.53-.01.6-1.54 1.01-3.11 2-4.67 2.99.58-2.59 2.26-3.36 4.06-3.87m-4.33 27.22c-6.5 3.81-13.88 4.56-20.96 6.33 6.44-4.02 13.52-5.83 20.96-6.33m-25.46-30.87c2.3-4 3.9-6.4 7.92-7.28-.91 4.27-3.74 5.32-7.92 7.28m13.43 24.44c-1.47 2.08-4.4 3.1-8.77 3.05 2.7-.94 5.4-1.88 8.77-3.05m3.95-48.74c-.28.47-.56.94-.85 1.41.28-.47.55-.95.83-1.42l.02.02Zm-1.68 2.77c-2.15 2.2-4.35 4.35-6.45 6.6-2.76 2.97-5.94 5.13-10.16 5.6 4.68-5.25 9.62-10.1 16.6-12.2zm-16.62 43.3c1.36-.68 2.41-2.48 4.3-1.42.31.17.57.87.48 1.23-.52 2.19-2.63 1.43-4.02 2.02-.59.25-1.3.2-3.24.46 1.49-1.4 1.91-2.01 2.49-2.3Zm17.11 17.23c.7-.13 1.61.13 2.09-.24 10.4-7.8 22.53-5.33 34.24-5.49-8.55 2.48-17.48 3.15-26.07 5.46-8.9 2.4-17.93 4.36-26.9 6.52 5.28-3.13 10.79-5.18 16.64-6.25m-11.39 17.3c-.39.14-.78.28-1.17.41.11-.33.14-.82.36-.95.27-.16.72 0 1.1.01-.1.17-.19.35-.29.52Zm52.09-16.32c-5.06 4.23-35.77 12.39-47.72 12.92 16.13-6.24 31.41-9.03 47.72-12.92m-30.58 17.86c-2.62-1.27-6.61 2.19-10.7.19 5.4-1.94 10.38-3.85 15.89-3.71 1.41.04 2.84.27 4.24.15 4.39-.36 4.39-.41 6.55 4.58-5.36-.95-10.51 1.44-15.97-1.2h-.01Zm36.3-1.86c-4.87.6-9.72 1.36-14.66 1.62 10.82-2.43 21.06-7.19 32.33-7.72-5.19 4.05-11.33 5.33-17.67 6.1m17.86-6.15c2.06-.59 3.94-1.68 5.29-3.23 5.85-6.74 14.42-5.6 21.73-8.06-2.93 3.1-7.04 3.2-10.69 4.11-3.51.88-6.7 1.61-9.4 4.33-1.75 1.76-4.23 2.84-6.93 2.85m14.37 2.98c7.09-6.52 15.41-4.6 23.22-5.17-6.97 3.3-14.67 4.02-23.22 5.17m29.32-8.51c8.17-3.43 16.35-6.87 24.52-10.3-7.66 4.68-15.34 9.29-23.81 12.02-.24-.57-.48-1.14-.71-1.71Zm28.69-2.66c-1.65.98-3.39 1.34-5.97.76 1.48-2.1 2.94-3.17 4.61-3.91.92-.4 1.88-.11 2.31.86.44.99-.07 1.76-.95 2.28Zm18.15-4.39c-2.39.65-4.8 1.22-8.82 2.22 3.02-3.24 5.28-4.4 7.59-5.48.84-.39 1.91-.67 2.42.48.55 1.24.32 2.38-1.18 2.78zm7.99-2.75c2.61-3.43 6.15-4.45 9.92-6.16-2.05 4.11-5.35 6.17-9.92 6.16m22.75-6.36c2.01-2.96 4.48-3.48 6.47-4.61 2.2-1.25 4.4-2.53 7.99-4.62-2.34 4.27-7.16 7.35-14.46 9.23m17.2-17.96c-6.48-1.03-11.47 2.56-16.98 4.52-1.78.63-3.34 1.8-5.37 1.21-1.74-.51-3.21.04-4.69.99-3.51 2.23-7.01 3.94-10.82.29-.29-.28-.6-.47-.91-.6 1.34-1.69 3.57-1.97 5.57-2.42 12.39-2.84 24.32-7.64 37.27-9.09-.04 3.18-1.68 5.5-4.08 5.11Zm25.73-26.14c-.89 1.69-2.74 1.53-4.18 2.17-.34.31-.64.66-1.02.91-.49.33-1.17 1.15-1.57.47-.36-.61.53-1.04 1.21-1.18.45-.1.9-.17 1.35-.25 1.04-1.31 1.9-2.82 3.68-3.31 4.24-2.9 8.15-6.32 14.12-9.3-3.08 7.18-8.64 8.42-13.59 10.49m56.86-26.59c-.18 1.05-.99 1.42-2.12 1.31-.58-.11-1.27-.4-1.12-1.18.2-1.02 1.02-1.45 2.03-1.36.71.06 1.34.45 1.2 1.23zm-10.97-13.1c-2.14 2.9-4.35 3.45-8.14 4.33 2.72-2.99 4.68-4.04 8.14-4.33m-14.82 17.13c4.91-2.83 10.07-5.22 14.66-8.61 2.06-1.53 4.56-2.53 5.55-5.25.74-2.04 2.47-2.35 3.95-1.15 1.29 1.04 1.87 2.84.55 4.38-1.37 1.6-2.86 3.07-4.92 3.94-5.43 2.29-10.8 4.74-16.19 7.12-3.11 2.03-6.53 3.25-10.15 4.06 1.56-2.56 3.77-3.97 6.56-4.49zm14.76 17.81c-1.97 1.27-3.93 2.56-5.9 3.85.04-3.43 2.21-4.94 3.98-6.69.84-.83 2.05-2.69 3.34-.67.9 1.4-.1 2.67-1.42 3.52Zm-9.84-3.78c-2.08 2.09-4.5 4.51-6.92 6.93 2.92-6.33 3.24-6.56 6.92-6.93m-10.89 27.01c-.1-.13-.18-.26-.25-.38-.53-.18-1.61.46-1.36-.74.05-.23.5-.37.88-.53-.16-1.57 1.47-2.52 2.61-3.5 5.68-4.91 11.46-9.71 17.89-15.14-.1 4.71-2.41 6.97-5.22 9.1-4.88 3.69-10.6 6.29-14.53 11.2a.43.43 0 0 0-.09-.24c.02.08.05.17.07.25zm38.71-.04c2.19.93 3.68 2.07 1.21 3.78s-4.97 5.65-8.36 3.08c-2.14-1.62-3.5.15-5.14-.36-1.02-2.43 2.96-3.19 1.84-5.6-4.54 1.73-7.41 6.1-12.02 7.85-.86-2.04 2.65-3 .96-5.03-4.62-.45-6.61 4.68-10.85 5.08-.69-1.27.69-2 .83-3.04-1.82-2.54-4.33.67-6.65-.9 1.74-2.54 4.53-3.05 6.87-4.5.8 2.06-2.38 3.56-.13 5.3 3.61-2.57 7.19-5.2 10.85-7.69 1.34-.91 2.63-3.84 4.38-1.68 1.5 1.85-1.66 2.13-2.5 3.31-.91 1.27-2.8 1.89-2.59 3.9 1.75 1.47 3.05.23 4.41-.71 1.76-1.21 3.43-2.59 5.33-3.53 1.66-.82.93.91 1.2 1.55 2.53 1.04 3.99-.84 5.57-2.15 2.53-2.11 5.17-3.98 8.75-4.7-1.17 1.26-2.38 2.49-3.51 3.8-.57.65-1.72 1.71-.44 2.25Zm13.65-14.36c-1.84 1.15-3.95 4.85-5.66 2.63-2.22-2.88 2.51-2.84 3.8-4.45.93-1.16 2.3-2.27 4.46-2.29-.13 2.11-1.34 3.32-2.6 4.11m14.13 53.79c-.39.05-.92-.22-1.23-.5-1.35-1.23-.62-2.53.02-3.76.53-1.02 1.09-2.05 3.21-2.54-.1 1.39-.25 2.52-.25 3.64 0 1.4.21 2.9-1.74 3.16zm-8.24-51.59c3.72-5.85 8.33-9.4 9.8-15.06.11-.41.51-1.08.73-1.06 4.94.41 6.77-5.8 12.49-5.17-6.19 8.39-12.77 15.79-23.02 21.29m72.18-45.31c.28-.92.86-2.09 1.78-1.89 1.65.37.89 1.78.59 2.79-.27.91-.8 1.7-1.96 1.66-.92-.72-.69-1.66-.42-2.56zm-.94 7.58c.39-1.29 1.56-1.88 2.74-1.12 1.16.75 1.04 2.09.25 3.07-1.14 1.41-1.64 3.4-4.07 4.32-1.23-2.63.49-4.35 1.08-6.27m-4.2-11c-2.64 1.97-4.7 4.56-8.31 5.38 1.41-3.19 4.18-4.99 8.31-5.38m-24.95 13.34c2.21-1.57 3.63-4.61 7.08-3.96.06-.03.09-.07.13-.11h.02c-1.79 2.08-2.68 5.02-5.6 6.08-.75.27-1.46.03-1.78-.67-.17-.36-.11-1.15.15-1.33Zm-5.27 73.54q3-3.705 9.3-4.98c-3.23 3.55-6.07 4.04-9.3 4.98m-5.52-15.24c3.23-5.82 7.29-11.07 12.28-16.49-.46 4.81-2.64 7.79-12.28 16.49m9.54-34.49c-1.35 2.45-2.98 4.53-6.17 6.91 2.2-6.05 4.16-11.2 7.86-14.55 4.56-4.14 9.01-8.33 13.06-13.11-.94 4.06-2.71 7.94-5.87 9.96-4.31 2.75-6.61 6.66-8.88 10.79m9.94 42.26c-1.23.07-1.41-1.12-1.06-2.04.78-2.03 1.9-3.85 4.5-3.34.92.18 1.43 1.09 1.51 2.26-1.09 1.81-2.77 2.99-4.96 3.12zm4.13-39.76c-.26.08-1-.44-.99-.65.16-2.17.79-4.06 3.3-4.53.21.34.45.56.43.74-.28 1.87-.53 3.8-2.74 4.44m1.47 31.43c1.84-2.32 3.96-4.3 8.24-4.43-2.5 3.23-5.45 3.67-8.24 4.43m9.21-8.81c3.7-3.75 8.33-5.79 13.3-7.1-3.78 3.69-8.64 5.19-13.3 7.1m105.92 2.95c-.54.26-1.05 0-.97-.54.04-.33.53-.78.87-.85.31-.06.72.32 1.08.51-.32.3-.6.7-.98.88m20.49.69c-.23-.14-.36-1-.19-1.17 1.48-1.48 3.19-1.63 5.52-.53-1.81 2.17-3.38 2.9-5.33 1.7m11.72 39.8c-.58-3.62.63-5.59 2.74-7.21 1.13 2.96-.32 4.77-2.74 7.21m6.22-54.47c-.81.72-1.75 2.02-2.84.58-.65-.85.22-1.73.91-2.33.67-.59 1.31-1.37 2.73-1.08.43 1.45-.11 2.22-.8 2.83m-3.22-6.1c4.25-6.66 9.23-10.47 14.5-13.97.31.36.62.73.93 1.09-4.77 3.98-9.54 7.97-15.43 12.88m30.62 29.92c.84-2.65 1.91-5.15 5.51-5.86-.77 3.26-3.02 4.65-5.51 5.86m-42.08 367.29c-.27.96-1.12 1.38-2.17 1.22-1.01-.3-1.47-1.07-1.42-2.03.06-1.06.77-1.68 1.82-1.52 1.26.19 2.17.93 1.77 2.33m29.3-89.58c-.34-.06-.76-.44-.89-.78-.21-.51.13-.99.64-.9.35.06.63.52.94.79.1.57-.16.98-.69.88Zm52.57-294.9c-1.01-2.21.39-3.46 2.21-5.88-.28 3.03-.04 4.89-2.21 5.88m-1.16-36.03c-4.46 7.53-9.42 14.73-14.86 21.62-2.47 3.13-4.31 6.77-6.43 10.19-1.48 2.38-3.14 4.49-7.1 5.39 7.99-20.07 16.64-38.56 31.85-53.99.76 6.28-.5 11.8-3.46 16.8Zm12.22-53.97c.61-.29 1.33-.46 1.76.45-.05.67-.49 1.15-1.19 1.3-.65.14-1.36.04-1.37-.8 0-.32.44-.79.79-.95Zm-2.17 18.85c-.32-.06-.83-.7-.79-1 .37-2.51 2.3-2.55 4.94-2.61-.92 2.35-1.76 4.04-4.16 3.61zm6.23-12.27c.17-2.18 1.78-2.73 3.34-3.83.72 3.68-2.22 2.72-3.34 3.83m4.23 25.38c-.6-2.72.02-4.23 2.24-4.73.33-.07 1.1.36 1.11.6.14 2.12-1 3.36-3.36 4.13zm25.99-20.54c-.23 1.37-.38 2.93-2.13 3.19-.48.07-1.19-.57-1.6-1.05-1.43-1.69-.65-3.01.87-4.1.55-.4 1.18-.69 2.08-1.21 1.07 1.29.93 2.25.78 3.16Zm-17.36-10.5c3.95-5.8 9.28-7.89 17.19-6.19-6.45 1.93-10.86 6.07-17.19 6.19M138.2 396.61c-4.24 2.05-7.36 5.37-10.2 9.01-3.43 3.01-4.98 7.16-6.74 11.17-.21 1.04-.1 2.01.7 2.8 7.08-6.48 12.09-14.43 16.24-22.98"/><path d="M370.87 329.65c-8.05 4.07-16.5 7.22-24.62 11.08-10.06 4.78-20.16 9.11-31.14 11.28-3.49.69-6.91 1.69-10.48 2.06-2.6.27-4.89 1.1-7 3.05-3.26 3.02-7.61 3.91-11.92 3.47-6.61-.67-13.09 1.75-19.71.52-.74-.14-2 .52-2.44 1.18-1.98 3.01-5.05 2.68-7.73 2.26-5.32-.82-10.59-1.36-15.98-1.06-4.45.25-7.9-4.1-12.06-3.67-1.69.17-3.34.7-5.01 1.24.43-.3.85-.61 1.27-.95-.09-.48-.42-1.21-.23-1.39 7.19-7 10.5-16.36 15.17-24.89 4.7-8.59 5.59-17.91 5.08-27.48 4.84-8.82.29-17.11-1.45-25.56-.1-.48-.18-.97-.26-1.45.62-1.36 1.25-2.71 1.87-4.07-.33-.35-.65-.7-.98-1.04 2.49-6.08 1.35-11.69-2.26-16.96.25-.95.86-1.98.68-2.85-1.59-7.81 4.36-9.17 9.56-11.3 1.01 3.31-.86 6.04-2.15 10.04 5.63-3.6 9.88-7.02 11.5-12.9 2.9-7.36.31-13.84-3.26-20.15-.88-1.5-3.31-1.81-3.17-4.1.18-4.59-3.03-6.54-6.45-8.44-2.69-1.49-6.06-1.26-8.45-3.44h-16.03c-5.36 3.31-12.01 3.97-16.78 8.63-4.27 4.16-8.91 8.36-12.02 13.09-3.15 4.79-5.11 11.18-4.86 17.47.21 5.22-1.06 10.06-2.88 14.85-1.98 1.02-1.37 3.42-2.61 4.84-.87.81-1.74 1.62-2.62 2.43-1.9 2.83-4.45 5.28-5.27 8.76 0 .23.04.45.07.68-.68 1.18-.64 2.84-2.11 3.5-.33.33-.65.66-.97.99-3.97 2.53-5.82 6.26-6.16 10.85-3.48 2.06-3.99 5.54-4.32 9.09-.52.75-1.05 1.5-1.58 2.25-3.34 3.18-5.11 7-4.67 11.69l.96 3.41c-1.81 3.97-3.04 8.1-3.22 12.49-.87 2.49-1.15 5.01-.54 7.6-.52 2.89-1.05 5.78-1.57 8.67-.1 1.73.02 3.48.06 5.22-5.26.81-10.11-2.02-14.97-3.92-8.26-3.23-15.58-8.25-22.62-13.62-1.57-1.2-2.96-2.39-1.58-4.72 1.41-2.39-.33-3.35-2.19-4.24-2.13-1.02-4.99-.97-6.38-2.98-3.46-5.03-7.57-9.8-7.42-16.57.07-3.31-.4-6.61-1.46-9.85-2.55-7.76-2.23-15.4 1.5-22.82.94-1.88 2.38-3.77 1.99-6.02-1.3-7.43 1.93-12.91 7.28-17.52 2.27-1.96 3.31-4.53 1.76-6.99-3.44-5.48-1.33-9.97 1.84-14.4 5.46-7.62 7.63-17.4 15.46-23.45.63-4.4 4.27-6.73 6.8-9.81 5.15-6.27 11.43-11.45 17.39-16.87 2.93-2.66 3.44-6.7 6.81-8.9 11.91-7.77 23.57-16 37.99-18.68 1.86-.34 3.64-1.12 5.44-1.75 15.75-5.44 32.1-8.35 48.41-11.42 1.36-.26 2.92-.27 4.22.13 3.12.96 6.13.47 9.19-.06 10.35-1.78 20.72-3.07 31.27-1.71 4.96.64 9.98.78 14.96 1.3 3.75.4 7.98.16 10.89 2.6 3.02 2.54 5.64 3.56 9.63 2.88 5.3-.91 8.9 3.14 11.64 6.67 1.56 2.01-1.37 5.19-2.51 7.8-.94 2.13-2.91 3.87-2.76 6.43.12 2.11-1.21 3.06-2.85 3.59-6.01 1.94-10.23 5.65-12.38 11.69-.38 1.06-1.35 1.96-2.18 2.8-5.32 5.3-9.59 11.42-13.99 17.47-4.06 5.58-7.39 11.19-8.74 18.27-1.03 5.41-3.71 10.51-3.53 16.28.04 1.09-.59 2.33-1.23 3.29-1.65 2.49-1.56 5.47-2.49 8.08-1.62 4.56 2.42 7.6 2.29 11.4-.16 4.62 2.52 7.02 5.64 9.15 4.35 2.98 9.08 4.83 14.57 5.19 9.76.63 18.96-1.06 27.75-5.13 2.78-1.29 4.99-3.48 8.23-.4 1.54 1.47 3.54-.53 4.67-2.08 2.1-2.88 3.92-5.95 6.46-8.53 4.99-5.08 9.88-10.26 14.75-15.46 11.01-11.75 19.29-24.65 21.03-41.4.97-9.39 2.89-18.99 5.7-27.9 2.2-6.98-.08-12.97-.38-19.18-.23-4.84-1.73-10.22-3.2-15.23-.51-1.74-1.29-3.38-1.91-4.98-5.02-12.96-14.92-22.37-23.16-32.97-1.25-1.61-3.15-2.36-5.02-2.46-6.89-.37-14-1.63-20.65-.46-10.52 1.85-20.85.9-31.26.38-3.87-.19-7.98-2.05-10.84 2.59-.46.74-2.69.37-4.09.54-16.09 2.01-32.35 1.58-48.47 3.14-4.32.42-8.61.31-12.5-1.99-2.72-1.6-5.54-1.2-8.33-.52-4.62 1.12-9.19 2.46-13.8 3.64-9.27 2.37-18.08 6.02-26.66 10.11-8.61 4.1-18.66 3.75-26.85 9.11-1.7 1.11-4.08 1.81-6.09 1.69-2.93-.18-4.99 1.16-7.25 2.47-5.09 2.97-10.1 6.19-16.51 4.67-.78-.19-1.9.25-2.62.75-7.67 5.27-16.27 9.01-23.96 14.19-9.48 6.38-18.77 13.1-27.76 20.16-7.66 6.02-16.23 11.18-22.26 18.94-4.96 6.37-9.8 12.69-16.3 17.57-.57.43-1.07.95-1.58 1.45-.72.7-1.42 1.83-.83 2.5 3.67 4.14-.28 6.84-2.19 9.12-7.91 9.47-12.82 20.45-17.29 31.75-2.67 6.75-4.49 14.33-13.77 15.28-1.32.13-2.68 1.28-2.39 3.05.31 1.89 1.47 2.94 3.48 2.79 1.16-.09 2.34-.52 4.02.59-.92.64-1.44 1.15-2.07 1.42-1.66.72-4.15.59-4.05 3.2.08 1.99 1.83 2.55 3.59 2.74 1.88.21 1.86 1.49 2.07 3.04 1.15 8.48-3.58 16.43-2.13 24.94.18 1.06-1.31 1.82-2.43 2.31-1.55.66-3.31 1.36-2.81 3.48.38 1.58 1.93 1.95 3.42 2.06 2.36.17 3.94 1.26 2.45 3.61-1.94 3.07-.38 5.33 1.62 6.84 4.77 3.59 6.29 9.51 10.37 13.52.71.7 1.05 1.53.45 2.54-2.19 3.67.35 4.09 3 4.14 2.13.04 4.28.55 4.08 2.85-.27 3.14 1.99 4.14 3.69 5.53 4.24 3.49 9.13 5.98 13.82 8.81 11.43 6.89 24.25 11.08 35.28 18.77 9.17 6.39 19.6 9.58 30.77 10.36 6.42.45 12.73 1.69 19.06 2.84 5.22.95 10.45 1.84 15.7 2.55-.63 1.28-.86 2.77-1.78 3.86-2.59 5.83-5.18 11.67-7.75 17.51-.8 1.81-1.55 3.64-2.32 5.47-4 7.41-7.99 14.83-11.99 22.24.42 1 1.14 1.63 2.23 1.81 5.44-7.36 11.39-14.37 15.87-22.42.8-1.44 1.46-2.97 2.18-4.45 3.63-6.38 7.27-12.75 10.9-19.13l.89.27c0 9.57-.09 19.14.07 28.71.04 2.17-.81 5.19 3.01 5.73 1.11.16.76 1.67.85 2.61.44 4.62.84 9.23 1.24 13.85-1.22 4.6-2.43 9.2-3.65 13.8-.22 2.05-.44 4.09-.67 6.14-4.95 20.47-9.92 40.94-14.85 61.41-1.75 7.25-3.42 14.52-5.13 21.78 4.63 1.08 6.24-2.72 8.46-5.37 1.6-1.91 2.12-4.55 3.93-6.35.84-.84 1.95-1.53 3.15-.97 1.44.68.84 2.03.54 3.09-4.38 15.6-9.74 30.84-16.65 45.52-3.87 8.21-8.72 15.71-14.74 22.5-1.38 1.55-3.09 3.26-1.64 5.73 12.06-11.4 20.52-25.12 26.13-40.64 3.77-10.45 7.37-20.97 11.05-31.46 1.71-1.3 2.07-3.32 2.76-5.17.54-2.42 1.35-4.77 1.89-7.2 4.57-2.02 6.58-5.9 7.29-10.72 3.49-1.76 6.56-2.41 7.76 1.94.03.37.1.73.24 1.06-2.02 12.6-5.1 24.95-9.05 37.07-2.98 9.15-5.94 18.35-11.96 26.13-.5.64-.8 1.52.29 2.07 7.67-9.11 11.68-19.98 15.03-31.18 5.29-17.71 9.35-35.69 11.78-54.02 2.5-10 3.23-20.28 4.9-30.4.21-1.29 0-2.7 1.24-3.63.17-10.76 2.34-21.32 3.28-32.01.44-5.08.71-10.17 1.05-15.26 1.51-9.64 2.7-19.32 3.29-29.06 5.61-.32 11.21-.75 16.8-1.31 10.16-1.03 20.37-1.08 30.52-2.53 5.15-.73 10.58-2.47 15.54-1.46 4.78.98 8.86.19 13.2-.91q2.43-.615 4.89-1.05c18.77-3.32 37.21-7.7 54.64-15.75 7.11-3.28 14.26-6.82 21.77-8.77 5.39-1.4 10.05-3.45 14.87-6.12 8.52-4.72 8.93-13.57 11.87-21.02 1.37-3.47-2.88-6.64-6.17-4.97zm17.28-174.06c-.42 3.96 1.04 8.22-2.75 12.71-.24-5.31.22-9.21 2.75-12.71m-10.28-18.72c3.26 5.29-.95 8.66-1.96 12.55-.99-4.18-.68-8.19 1.96-12.55m-2.77 69.07c.43-.42 1.69.17 1.65.8-.22 3.4-2 5.92-4.5 8.15-.48-.59-.73-.75-.73-.92-.07-3.23 1.33-5.87 3.58-8.03m-34.39-8.49c1-1.85 2.62-3.48 2.2-5.86-.84.05-2.04.47-2.43.07-1.06-1.07.06-1.97.78-2.73.6-.63 1.34-1.14 2.01-1.7l.57-.75c-.18.26-.36.51-.54.77-.35 1.4-.74 2.8-.3 4.25 3.32-1.02 2.81-5.46 5.95-6.66-.47 5.3-15.12 31.6-20.69 35.59 4.66-8.6 8.57-15.79 12.47-22.99h-.02Zm-36.62 51.9c-3.56-1.02-5.5-2.91-6.32-6.83-2.38-11.32.48-20.98 10.3-28.02-1.52 3.16-2.67 6.59-4.65 9.43-4.79 6.86-3.91 13.76-1.02 20.88.6 1.48 1.99 2.68 1.69 4.54m4.82 5.11c-.96-.7-2.01-1.52-1.24-2.9.33-.59 1.16-.95 1.8-.49 1.05.76 1.06 2.04 1.27 3.17-.56.68-1.26.64-1.83.22m2.04-19.88c.71 1.39-.06 2.69-1.32 3.63-1.02.75-2.14.97-3.3.57-1.51-.52-1.07-1.69-.97-2.87.44-5.3 3.88-9.17 6.23-13.62-.7 4.12-2.83 8.04-.63 12.3h-.01Zm.2-27.03c-.43.82-1.27 1.37-2.35.76-1.21-.68-1.72-1.69-1.04-2.93 2.6-4.73 5.65-9.13 10.66-12.07-2.41 4.75-4.79 9.52-7.27 14.24m3.42 23.68c-.91-4.25-.46-6.55 2.66-8.49.79 3.19-.05 5.36-2.66 8.49m1.12 20.23c-.44.09-1.48-.57-1.52-.96-.32-2.87 1.96-3.72 4.54-5.83-.16 3.75-.04 6.15-3.02 6.78Zm2.85-30.87c-.1-.41-.36-.85-.27-1.22.15-.68.66-1.18 1.41-1.07.14.02.18.71.3 1.26-.45.32-.95.67-1.44 1.02Zm4.88-36.22c-.04.22-.09.44-.11.66-.11 1.39-.36 2.72-1.99 3.08-.3.07-1.03-.33-1.01-.46.13-1.55 1.56-2.05 2.53-2.93.17-.15.36-.27.54-.4 1.11-1.3 1.53-3.14 3.17-4.03.26-.88.69-1.65 1.64-1.89.13-.03.63.57.57.71-.38.92-1.22 1.17-2.14 1.24-.31 1.94-2.13 2.68-3.19 4.01h-.01Zm8.03 60.12c-.21 1.45-1.06 2.47-2.43 2.88-.99.16-1.4-.4-1.32-1.13.18-1.49 1.14-2.45 2.53-2.88.84-.26 1.33.38 1.22 1.14Zm31.79-134.17c.26-.68.86-1.17 1.51-.6.91.8 1.21 1.91.9 3.09-.42.69-1.06 1.05-1.67.6-1.02-.77-1.2-1.91-.74-3.08Zm-14.19 135.87c3.55-4.89 8.26-8.29 13.2-13.15-2.39 6.68-6.97 10.99-13.2 13.15m-6.18-8.54c-1.21 2.49-3.68 4.09-7.66 6.13 5.99-12.06 13.45-21.27 20.05-30.93-2.72 9.09-8.36 16.53-12.39 24.8m7.76-133.22c-3.96 2.05-6.54.37-9.17.25 2.64-.28 5.24-1.49 9.17-.25m-20.5 9.13c8.07.56 16.13 1.16 24.2 1.75-8.42 1.46-16.7 1.22-24.95.27-1.81-.21-3.86.12-5.3-1.19 1.64-1.64 3.89-.99 6.06-.84h-.01Zm-1.09 13.38c-7.18.99-14.23 3.52-21.62 2.13 6.94-3.75 14.41-1.52 21.62-2.13m-94.53-3.61c10.76-1.15 21.53-1.89 32.36-1.3-10.72 1.74-21.52 1.61-32.33 1.34-.41.1-.82.2-1.24.29l1.2-.33zm-12.87-18.6c1.44-1.41 3.02-1.73 4.68-.55-.15 1.52-1.22 1.52-2.03 1.81-.86.31-1.76.56-2.62-.06-.02-.41-.23-1.02-.04-1.21Zm-6.57 30.51c.66.27.99 1.22.57 1.72-1.62 1.92-3.68 2.49-6.7 1.42 1.94-2.35 3.36-4.28 6.13-3.14m-88.63 238.81c3.83-3.28 16.02-5.84 23.84-4.81-7.53 2.22-15.18 4.19-23.84 4.81m3.03 3.85c-.17-.01-.37.01-.52-.06-.06-.03-.04-.41 0-.42.54-.16.72 0 .51.48Zm62.73-63.55s-.03.02-.05.03v-.04h.06Zm-5 5.07v-.22c.1.02.21.04.3.07-.1.05-.19.09-.29.15Zm23.88-25.99s0-.02-.02-.03c0 0 .02 0 .03-.01v.04Zm-9.06-.73c.06.08.1.16.16.24-.23.02-.57-.4-.16-.24m-2.56 20.59c-.08.05-.15.1-.23.15 0-.06 0-.11-.02-.17.08 0 .17.02.25.02m-14.33-12.94v-.03l.02.01-.02.01Zm-14.05 17.01s.02-.01.03-.01c0 0-.02 0-.03.01m12.21 31.7c.22-.19.39-.4.51-.61h.06s-.06.04-.08.06c-.15.22-.26.45-.36.68-.04-.04-.08-.09-.12-.13Zm23.92-18.85v.14a.5.5 0 0 1-.16-.04c.05-.04.1-.07.15-.1Zm20.96-105.52v-.1c.34 1.07.96 1.28 1.87.62.04 0 .07 0 .11.02-.86 1.26.97 2 1.14 3.06h-.03c-.48-1.59-3.28-1.52-3.09-3.61Zm8.73 3.32c.08-.2.15-.41.2-.65.1-.07.18-.15.24-.23h.06c-.14.43-.29.84-.45 1.22a2 2 0 0 1-.06-.34Zm-72.91 105.3c-.13-.11-.25-.23-.38-.35.13-.04.25-.07.38-.11v.45Zm.12 30.38c.85.07 1.75.4 3 .27-1.46.76-2.48.93-3.4.85.19-.34.31-.72.4-1.12m36.18-14.07c.2-.6.43-1.23.68-1.91.1.31.16.68.19 1.08-.31.26-.61.52-.87.82Zm7.94-18.24.06.06c-.02 0-.04 0-.06.01v-.08Zm-40.8-21.14c-.05.06-.08.13-.13.19-.1-.17-.19-.3-.28-.43.13.05.27.13.41.24m1.69-19.89s-.02-.03-.04-.05c0 0 0-.02.02-.03 0 .03 0 .05.02.08m-10 84.11-23.25 2.5c11.24-4.29 16.71-4.99 23.25-2.5m26.99 55.17v.13c-.05-.02-.1-.03-.15-.04.05-.03.1-.06.16-.09zm-8.07-60.76c5.83-2.25 10.47-.34 15.12.41-4.65.43-9.29.87-15.12-.41m13.94-7.92c-1.06-.08-2.57-.02-3.22-.51q2.01-.09 4.02-.12c1.78-.02 3.56.1 5.34.25.09.3.21.59.35.86-2.17-.16-4.33-.33-6.5-.49Zm16.12-.19c.04.46.08.92.11 1.38l-1.32-.09c.34-.52.71-1.01 1.21-1.29m-3.7 8.36c4.2.24 8.38.59 12.58.89-3.04 1.51-6.36.3-8.55 3.52-.77 1.14-2.66.5-4.07.49-1.73 0-2.51-.74-2.61-2.54-.12-2.08 1.1-2.45 2.65-2.36M184.04 263c.25.34.14.9.04 1.45-.15-.33-.18-.79-.04-1.45m-14.97 27.31s-.03.08-.04.12c0-.04-.02-.09-.03-.13h.08-.01Zm-7.99 16.22c-.12.01-.24.02-.34.04.1-.09.2-.18.31-.27.02.08.03.15.04.23Zm-31.21 51.77c.18-.09.46-.25.56-.18.32.24.13.47-.46.58-.18-.02-.37-.05-.55-.07.15-.11.29-.24.45-.32Zm-13.88-13c-1.95 1.4-3.99 2.64-6.77.46 2.36-2.15 4.58-1.07 6.77-.46m-4.78 4.18c-5.18 3.71-12.55 6.01-18.63 5.8 5.76-3.37 11.86-5.67 18.63-5.8M98.6 335.22c-12.42 4.35-24.84 8.7-36.6 12.81 15.38-9.08 26.4-13.37 36.6-12.81m-3.86-6.04c-3.52 3.42-13.12 6.83-20.12 6.9 7.37-2.92 12.93-6.18 20.12-6.9m1.58-98.56c-.56 1.46-1.33 3.15-3.18 3.18-1.37.03-1.77-1.35-1.77-2.53-.01-2.37 1.77-2.27 3.41-2.28 1.02.08 1.96.55 1.54 1.63m-3.75-26.92c-.51.43-1.04 1.04-1.52.03-.04-.08.67-.51 1.03-.78 2.77-2.87 6.02-4.65 11.49-5.5-3.53 4.65-7.23 5.51-10.99 6.25zM25.19 311.02c-.12.23-.44.08 0 0m47.36-25.33c1.31.66 4.03-.53 3.5 2.49-.13.73-.67 1.19-1.41 1.22-3.07.12-1.79-2.25-2.09-3.71m-.5-.79c-2.67-.92-4.87.63-7.24 1.37-2.41.75-4.86 1.4-7.47 1.5 6.52-3.73 12.92-7.67 20.94-7.84-.93 3.51-5.05 2.32-6.23 4.97m-.42 9.5c-14.58 5.77-28.95 12.13-44.31 15.67 3.49-1.4 6.33-4.12 9.92-5.44 11.24-4.16 22.24-9.07 34.39-10.22Zm-27.55 18.7c4.36-3.34 9.47-4.28 14.77-4.6 1-1.48 2.63-1.34 5.11-2.41-1.58 3.06-3.36 2.66-4.96 2.64-4.32 2.98-9.14 4.61-14.32 5.3-5.07 3.51-11.12 4.44-16.81 6.35 4.87-3.64 9.84-7.03 16.21-7.28m6.27 10.86c-.36.63-1 .94-1.7 1.17-.06-1.3 1.02-.94 1.7-1.17m3.93 2.32c6.63-4.35 13.88-6.85 21.81-7.31-6.39 4.47-13.29 7.56-21.05 8.46-1.52.85-2.97 2-5.2 1.28.84-2.3 2.77-2.16 4.45-2.44Zm19.61-10.83c-6.28 2.79-12.81 4.97-19.21 7.49-1.26.5-2.44.98-3.77.64 10.12-6.37 27.38-12.72 33.34-12.1-2.82 3.39-7.06 2.49-10.36 3.96Zm7.66-55.55c.9-8.27.1-17.26 8.25-22.35l1.29.96zm2.57-46.14c.28-1.23 1.3-1.77 2.47-1.86.66-.05 1.27.26 1.23 1.13-.41 1.2-1.41 1.7-2.53 1.89-.74.13-1.34-.4-1.17-1.16m41.71-22.83c-3.4 1.64-5.53 3.9-7.61 6.93-3.25 4.72-5.57 10.48-11.96 13.44-.23-3.27 1.28-4.66 2.52-5.92 7.61-7.72 14.06-16.44 21.37-24.42 2.28-2.49 5.22-3.8 8.91-3.94-4.34 4.77-7.17 10.99-13.23 13.91m30.15-35.4c4.21-.86 7.53-4.36 12.12-4.08 2.4-1.46 4.06-3.5 4.88-6.21l.25-.19c5.04-2.89 10.8-2.35 15.42-3.06-5.81 1.64-11.33 5.92-17.02 9.87l-13.92 5.81c-10.38 7.91-21.72 14.16-33.75 19.19-1.85 2.09-3.86 3.78-7.86 3.04 2.32-2.41 4.29-3.66 6.88-3.95 11.25-6.4 20.98-15.27 33.01-20.42Zm-42.39.36c-3.47 3.12-7.36 5.13-12.93 5.17 3.3-5.93 8.13-5.52 12.93-5.17m-25.24 16.17c8.71-3.7 17.39-7.46 26.17-10.96 7.07-2.81 14.27-5.28 21.42-7.9 4.8-1.34 9.33-3.74 15.93-4.37-4.56 3.96-8.65 5.17-12.91 6.02-17.72 7.29-35.92 13.4-53.9 22.35.38-3.08 1.51-4.39 3.29-5.15Zm-9.15 5.46c-.82 4.22-4.44 7.23-10.85 9.04 3.02-5.2 7.81-5.93 10.85-9.04m-18.48 15.61c.37-1.49 1.81-3.06 2.91-2.5 5.5 2.79 9.24-1.57 13.69-2.92.67-.2 1.35-.47 2.15.59-3.68 3.54-8.29 5.72-12.62 8.31-1.69 1.02-3.15.15-4.61-.65-1.12-.62-1.86-1.51-1.53-2.82h.01Zm-3.05 5.83c.35-.92 1.1-1.44 2.11-1.21.72.16 1.01.73.91 1.48-.51.8-1.22 1.34-2.2 1.19-.77-.12-1.08-.76-.82-1.46m37.8-4.77c-5 5.35-11.78 7.93-17.91 11.49-6.34 3.68-12.86 7.06-19.3 10.57-.34-.45-.67-.9-1.01-1.35 12.5-7.3 24.57-15.36 38.21-20.71zM52.99 229.4c7.5-4.07 15.04-8.07 22.57-12.07.64-.34 1.37-.38 2.1.36.32.53.19 1.19-.49 1.57-8.51 4.74-17.02 9.49-25.57 14.15-1.42.78-3.02 1.6-4.67.3-.03 0-.06.02-.09.03 1.5-2.26 3.95-3.15 6.15-4.35Zm22.4 10.55c.1 1.47-.89 2-2.18 2.03-.79.02-1.36-.49-1.41-1.23-.1-1.62 1.37-1.55 2.02-1.92 1.37-.33 1.53.5 1.57 1.13Zm-9.34 28.94.38-.31-.31.39c-8.37 4.79-17.3 8.27-26.23 11.74 4.63-5.16 19.85-11.72 26.16-11.82m-9.32-23.79c3.14-2.62 5.13-3.56 7.94-1.68-1.94 2.77-4.31 2.22-7.94 1.68m-12.17-8.73c-.46.76-1.06 1.41-2.24 1.51.46-.84 1.37-1.18 2.24-1.51m7.94 13.04c-3.64 3.26-4.16 3.45-11.85 3.88 3.6-1.75 7.28-3.54 11.85-3.88m10.5 4c-3.32 3.98-16.91 8.76-25.25 8.88 4.8-3.73 18.55-8.56 25.25-8.88M24.29 243.3c1.06-1.99 1.22-4.7 4.71-5.39.41 2.21-1.82 3.7-.46 5.67 1.05 1.52.18 2.68-1.26 3.4-.85.43-1.81.69-2.68.06-1.52-1.1-.99-2.46-.31-3.75Zm.52 25.79c1.01-.38 1.84.07 2.32.95.59 1.07-.07 1.76-.95 2.21-2.65 1.35-5.29 2.74-9.58 3.16 2.87-3.59 5.33-5.25 8.2-6.33h.01Zm-11.58 15.36c-.06-1.12.17-2.25 1.32-2.63 1.52.03 1.55 1.11 1.67 1.93.15 1.13.1 2.38-1.45 2.53-1.23.12-1.49-.96-1.54-1.83m11.52 7.61c17.47-9.33 35.35-17.58 54.96-21.56-2.83 4.79-7.24 7.03-12.2 8.61-13.74 4.38-27.62 8.4-40.64 14.76-3.91 2.46-8.1 4.18-12.7 4.96 2.73-3.58 5.95-6.29 10.59-6.77zm-3.97 15.63c-.99.49-2.17 1-4.27-.1 8.64-4.84 17.07-8.56 26.06-10.79-6.74 4.92-14.55 7.31-21.79 10.89m5.41 24.66c-1.16.67-2.8 1.43-3.19-.91-.24-1.46-.06-3.27 1.8-3.17 3.49.19 6.54-.98 9.56-2.34 3.24-1.46 6.36-3.18 9.56-4.74.84-.41 1.78-.7 2.79.29-6.47 4.43-13.84 7.02-20.52 10.86Zm5.57 8.89c17.68-8.29 34.91-16.18 54.05-18.81.97-.13.98-.07 5.39 2.96-4.31-1.1-7.02-.87-9.84.02-15.13 4.81-30.38 9.24-44.84 15.95-1.23.57-2.48 1.61-4.77-.12zm13.5 8.23c-2.45 1.26-4.32.61-6.56-2.79 7.09 2.34 10.4-4.92 16.31-3.89.29-.35.51-.8.88-1.03.55-.34 1.66-.85 1.72-.75.83 1.24-.32 1.46-1.1 1.79-.41.17-.89.18-1.34.26-2.66 3.14-6.41 4.61-9.92 6.42Zm14.1 3.17c9.11-4.39 39.33-13.83 44.37-13.99-4.73 3.3-42.51 16.99-47.51 17.19-.22-2.3 1.82-2.57 3.14-3.2m5.43 7.25c-.44-.88.16-1.96 1.1-2.3 11.23-3.99 21.95-9.55 34.03-10.97-3.35 3.12-7.88 3.58-11.8 5.38-6.65 3.04-13.48 5.7-20.24 8.5-1.15.48-2.45.68-3.09-.61m15.35 8.58c-1.42.52-3.19.62-3.76-.82-.7-1.76 1.22-2.33 2.46-2.81 13.3-5.15 26.73-9.88 40.97-11.77 2.16-1.47 4.36-1 7.2-.2-1.31 1.79-2.75 1.71-4.23 1.52-13.58 4.36-27.16 8.72-40.73 13.1-.67.22-1.24.73-1.9.97Zm43.94-8.51c-11.59 5.02-22.89 6.65-35.24 10.53 9.42-5.04 24.35-9.45 35.24-10.53m-18.85 13.6c-3.07.95-5.95 1.22-9.08-1.23 17.62-5.34 34.57-12.03 53.04-9.94-.04.26-.07.51-.1.77-10.49 2.46-21.13 4.16-31.55 6.89a274 274 0 0 0-12.31 3.51m12.04 8.69c12.08-.33 24.15-4.5 35.46.06-11.22 2.66-23.33 1.66-35.46-.06m75.9 2.53c-.04-.73-.08-1.45-.08-2.18v-.2c1.49-.18 3.04-.37 4.67-.56-1.54 1.46-3.07 2.38-4.59 2.95Zm8.37 1.33c10.57-1.53 19.39-3.46 28.49-2.43-8.89 1.23-17.6 4.4-28.49 2.43m108.1-21.22c-1.92.64-3.91 1.39-6.4.1 1.49-2.23 3.51-2.17 5.13-2.89 1.15-.51 2.75-1.48 3.37.49.42 1.35-1.06 1.95-2.1 2.3M886.99 318.43c-2.62-1.07-4.53.3-6.61 1.56-2.17 1.31-4.04 3.24-7.1 2.69-7.47-1.34-15.09-2.05-21.68-6.42-2.22-1.47-5.9-1.42-5.21-5.56-3.64-1.13-6.46-2.79-5.71-7.43.13-.82-1.61-.71-2.37-1.18-3.66-2.24-6.18-10.14-4.56-14.15 2.11-5.2 5.13-10.12 7.19-15.11 3.04-7.36 5.55-15.11 8.33-22.69 1.17-3.2 1.88-6.48-1.99-8.77-1.4-.83-1.86-2.47-1.82-4.51 1.81-.03 2.93.63 3.93 1.69 2 2.11 3.29 4.48 4.01 7.4.67 2.72 2.6 4.1 5.94 3.47 2.76-.52 4.58-.72 5.29-4.22.95-4.68 1.26-9.44 2.23-14.1 1.99-9.58 1.41-18.27-5.1-26.67-5.19-6.69-11.32-7.69-18.65-7.24-4.21.26-8.33 1.05-12.67.55-2.82-.32-6.01.55-8.75 2.42-2.3 1.58-5 3.14-7.68 3.48-5.32.69-9.88 2.95-14.5 5.31-3.79 1.93-7.57 5.66-11.55 4.9-3.82-.73-5.04 1.16-7.05 2.9-2.34 2.02-4.64 4.1-7.07 6.02-13.24 10.49-26.71 20.69-39.7 31.47-8.95 7.43-17.45 15.43-25.78 23.56-6.48 6.31-11.93 13.53-16.64 21.32-4.83 7.99-8.9 16.27-11.38 25.29-2.26 8.19-5 16.47-3.63 25.01 1.25 7.79-1.35 13.48-7.11 18.13-4.59 3.71-10.65 2.84-15.87 4.67-1.05.37-2.36.02-3.55-.09-3.7-.34-4.15-.88-2.75-4.44 1.19-3.04 2.17-6.31 5.43-8.06 1.16-.62 2.85-1.54 1.42-3.22-1.26-1.47-3.13-1.38-4.51-.19-1.22 1.06-1.96 2.66-3.07 3.87-1.75 1.91-5.69 2.09-6.64.16-1.12-2.29-3.01-4.63-2.2-7.35 2.14-7.18 1.63-14.88 4.71-21.9 4.88-11.1 10.08-22.11 13.99-33.56 3.19-9.33 7.61-17.86 12.59-26.23.6-1.02 1.5-1.98 1.72-3.08 2.21-11.08 8.95-20.28 12.7-30.77 3.13-8.75 8.19-17.07 10.57-25.96 3.19-11.92 7.55-23.5 10-35.64 1.12-5.55 2.14-12.01 5.59-15.98 4.9-5.64 5.51-11.64 6.06-18.19.11-1.4.67-2.76 1.11-4.12 6.14-19.28 12.09-38.59 15.31-58.65.63-3.93.07-8.58 2.6-11.72 5.48-6.8 3.55-16.41 9.33-22.98.62-.7.32-2.32.25-3.49-.37-6.17-.19-12.47-1.43-18.46-.95-4.6-2.1-9.45-7.27-12.41-2.38-1.36-5.76-3.73-5.66-8.08.04-2.01-3.39-2.36-4.17-.28-.94 2.52-2.47 4.57-3.81 6.79-7.51 12.43-15.09 24.8-20.54 38.38-3.08 7.69-6.18 15.48-10.65 22.53-5.63 8.88-10.27 18.27-13.79 28.11-8.24 23-17.18 45.76-24.24 69.18-5.63 18.69-11.77 37.23-17.01 56.05-3.84 13.77-6.43 27.81-9.62 41.73-2.07 9.02-5.34 17.72-6.71 26.94-1.55 10.35-3.63 20.62-5.55 30.92-.43 2.3-.22 5.01-2.21 6.63-6.13 5.01-9.6 12.47-15.65 17.36-4.64 3.74-7.13 10.22-13.99 11.24-1.23.18-1.88 1.37-1.93 2.69-.18 5.23-.6 10.47-.45 15.7.14 4.61 2.08 5.57 6.58 4.31 5.59-1.57 10.66-4.16 15.31-7.57 1.8-1.33 3.81-1.9 5.97-2.15 2.21-.25 3.85.14 3.38 2.97-.62 3.71-.39 7.42-1.55 11.21-1.78 5.82-2.68 11.91-2.42 18.26.35 8.33 4.38 16.09 3.27 24.58-.11.87.99 2.23 1.88 2.85 2.24 1.55 3.33 4.07 5.25 5.79 3 2.69 5.17 6.71 9.82 7.34 1.24-3.61-3.22-4.23-2.86-6.98 1.71-1.97 3.93-1.47 6.05-1.32 5.22.38 10.07-1.13 14.2-3.99 8.37-5.81 16.81-11.52 23.72-19.24 7.14-7.98 14.72-15.55 22.11-23.3 2.17-2.27 4.5-4.31 7.8-4.62 7.63-.71 13.9-4.6 20.23-8.43 9.39-5.68 17.99-12.49 27.11-18.54 13.57-9.01 25.68-19.6 36.25-31.99 2.83-3.31 5.78-6.55 10.13-8.32 1.87 5.82 3.12 11.14 2.83 16.68-.33 6.43 1.44 11.77 5.64 16.97 6.73 8.35 14.39 14.39 25.37 15.41 2.33.22 4.43 1.01 6.65 2.02 4.81 2.19 10.52 1.53 15.47 3.75.32.15.98-.13 1.33-.4 6.93-5.39 16.39-5.78 23.08-11.9 1.8-1.65 3.75-2.76 4.03-5.3.99-8.86 9.74-14.34 10.14-23.44 3.52-2.39.08-6.67 2.59-9.52.66-.75-.91-1.86-2.09-2.34Zm-39.43-116.21c.27-.72 1.21-.75 1.86-.44.57.27 1 .82 1.45 1.21-.41.96-1.13.95-1.75.83-.85-.16-2.09-.22-1.57-1.6zM726.6 29.59c.29-.9.55-1.81.87-2.84-.13-.58-.34-1.25-.41-1.94-.25-2.73.11-5.91 3.21-5.97 2.9-.05 2.79 3.5 3 5.66.2 2.03-.63 4.16-.97 6.25-.33 2.09-1.43 2.67-3.49 2.26-2.08-.41-2.89-1.35-2.22-3.42Zm5.23 9.28c1.95 3.28 1.18 5.83.97 8.36-.5 6.19-1.82 12.21-3.04 18.28-.68 3.35-2.44 3.53-5.99 3.25 2.15-10.22 6.67-19.2 8.06-29.89m-6.51 36c.79 4.34-.77 6.89-4.28 8.34.4-3.11.79-6.28 4.28-8.34m-6.06 19.66c-.56 2.51-.35 4.83-2.08 6.72-.44-2 .25-4.24 2.08-6.72m-58.51 140.36c-.42 4.68-2.33 7.68-5.17 10.2-.12-4.03 1.67-7.05 5.17-10.2m-44.02 121.75c.16-.7.56-1.36 1.39-1.06 1.07.4.96 1.35.72 2.24-.19.72-.67 1.15-1.47 1.14-.96-.56-.84-1.46-.64-2.33Zm-4.8 2.38c-.79-.04-1.06-.76-.67-1.4.45-.75.99-1.64 1.72-1.96.74-.34 1.07.51 1.08 1.26-.23 1.19-.75 2.18-2.13 2.11Zm7.67 26.71c-.95 3.04-.67 6.42-2.64 10.07-2.69-4.34-.93-7.9-.16-11.38.12-.55 1.14-.73 1.85-.36.65.35 1.19.88.95 1.67m4.64 22.1c-1.6-6.56.5-17.59 4.56-24.55-.05 8.62-2.36 16.24-4.56 24.55m7.35-41.09c1.2 5.28 3.88 8.56 7.54 11.29 2.65 1.98-.57 3.47-.98 5.33-6.59-6.54-8.48-10.87-6.56-16.62m10.86 41.17c-.45 1.35-.91 2.87-2.23 3.61-.98-2.52.36-5.03.9-7.47 1.2-5.43 3.73-10.35 7.09-14.94-1.9 6.27-3.69 12.58-5.76 18.8m10.4-6.92c.59-9.05 2.56-13.29 7.24-14.96-2.43 5.1-2.69 10.62-7.24 14.96m8.82 6.04c.41-4.74 2.6-8.59 5.89-11.91-.42 4.73-2.12 8.83-5.89 11.91m24.82-60.33c.14-.25.89-.44 1.11-.29.29.2.34.76.49 1.17-.35.23-.75.69-1.03.63-.81-.17-.92-.89-.57-1.5Zm-13.29 50.11c3.3-12.31 7.95-23.94 17.34-34.73-3.57 13.76-10.61 24.16-17.34 34.73m24.4-73.91c-.21.31-.74.39-1.12.58-1.49 2.42-3.5 4.24-6.14 5.32l-.04-.05c1.03-2.94 3.17-4.6 6.12-5.34.22-.37.36-.89.68-1.07.5-.28.84.09.51.57h-.01Zm128.07-99.13c.24-.36.4-.88.74-1.06.6-.31 1.1-1.75 1.94-.36.06.1-.82.88-1.35 1.21-.35.22-.85.19-1.28.28-1.37 1.61-3.02 2.63-5.55 2.89 1.28-2.81 3.53-2.6 5.5-2.95Zm-33.59 14.46c-2.03 2.62-4.74 3.34-7.47 4.85 1.76-2.43 4.25-4.05 7.47-4.85m-46.34 16.58c.52-.27 1.08-.15 1.11.38.03.6-.26 1.23-.49 1.82-.15.4-.43.75-.65 1.12-.24-.38-.5-.75-.71-1.14-.53-.98-.21-1.69.75-2.18Zm-1.69 6.08 1.65-2.7c1.68 2.19-.76 2.01-1.61 2.74-2.3 3.05-5.1 5.46-10.25 7.53 3.35-4.36 6.62-6.17 10.21-7.58Zm-29.34 33.09c.57 1.11-.27 2.15-.91 2.29-1.16.24-2.15.71-3.06 1.3.74-2.16 1.15-2.24 3.97-3.59m1.31 36.8c.67 3.2-.92 5.07-4.76 5.62 1.38-2.76 2.3-4.8 4.76-5.62m-8.23-30.74c-1.93 1.86-3.93 3.99-7.02 5.46 2.5-3.18 3.39-6.42 7.02-5.46m4.55 64.51c-.99.21-1.94-.11-1.77-1.34.16-1.15 1.17-1.45 2.13-1.1 2.54.93 4.94.41 7.34-.66-2.01 3.1-5.04 2.53-7.7 3.1m2.74-38.36c-.5-5.49 2.82-7.01 6.17-10.19-.58 4.84-2.48 7.28-6.17 10.19m11.23-26.92c1.15-1.86 2.52-3.44 5.15-3.4.66-1.68.93-3.67 3.3-4.11.72 2.87-2.48 2.56-3.29 4.12-1.34 1.59-2.67 3.18-4.01 4.76-.39-.46-.78-.92-1.16-1.38Zm20.37 51.72c-.23-.02-.44-.03-.65-.05.16-.35.24-.76.49-1.03.41-.45.93-.35.91.13-.01.33-.5.65-.75.95m6.87-5.71c-.38.31-.83.82-1.41 1.1-.47.23-.91-.21-.65-.69.31-.56.84-1.09 1.4-1.4.44-.24.76.18.66.99m5.92-5.86c-.15.11-.4.1-.6.15.03-.21 0-.46.11-.63.12-.18.39-.42.55-.4.53.09.51.45-.06.87Zm4.13-16.63c-2.21 2.41-5.11 3.48-8.22 4.21 1.54-2.34 3.67-3.76 6.29-4.53 7.03-4.57 12.53-11.16 20.24-15.58-3.63 8.69-10.42 12.94-18.31 15.9m33.58-10.92c-.19-.05-.43-.75-.33-1.01.13-.3.61-.46.95-.67.25.26.73.53.72.77-.04.78-.66 1.08-1.34.91m3.28-12c-.14-.77.34-1.31 1.12-1.53.57-.06.97.22.83.72-.11.4-.49.77-.82 1.07-.46.41-1.03.32-1.13-.25Zm6.18 35.22c-1.23.75-3.19 1.71-4.39-.23-.84-1.36-1.75-3.4-.21-4.52 3.06-2.23 2.36 2.43 4.65 2.79 1.65-3.66 3.33-7.41 5.02-11.15 1.05 5.56-.23 10.17-5.07 13.1Zm-3.15-48.83c.55-.38 1.25-.55 1.89-.82 1.2-2.62 2.24-5.37 6.02-6.77-.95 3.9-3.66 5.19-5.99 6.82-.5.48-.97.99-1.5 1.44-.33.29-1.02.75-1.06.7-.75-.84.21-1.08.63-1.37Zm12.15-16.23c0-.38.29-.9.61-1.1.72-.44 1.36-.22 1.28.72-.03.34-.59.63-.9.95-.54.16-1-.03-.99-.57m1.52 74.89c-.88.11-1.12-.59-1.27-1.26-.22-.91.45-1.17 1.12-1.3.9-.17 1.1.51 1.25 1.19.03.77-.35 1.27-1.1 1.36Zm3.65-59.77c-.19.65-.62 1.13-1.4 1.05-.61-.57-.34-1.19-.02-1.73.3-.49.71-1.19 1.39-.53.21.21.14.83.02 1.21zm.13-23.16c-.86.06-.85-.84-.54-1.34.31-.49.94-.78 1.43-1.16.11.37.22.74.36 1.23-.39.42-.79 1.24-1.26 1.27zm9.14 11.02c-.16-.01-.39-.77-.34-1.16.08-.72.51-1.3 1.33-1.07.23.07.3.7.45 1.08-.28.64-.68 1.22-1.43 1.15zm-2.66-32.41c-5.92 4.77-7.83 12.08-13.31 16.85-3.2 2.79-5.4 6.66-9.3 8.74-1.04.56-2.39 1.4-2.24 2.57.53 4.2-2.92 6.23-4.77 9.05-1.92 2.92-4.64 5.21-4.98 9.14-.17 2-1.63 3.76-3.82 4.83-3.62 1.77-6.99 4.06-10.59 5.88-2.81 1.42-5.78 2.46-5.77 6.38 0 1.77-1.63 2.17-2.77 2.92-5.75 3.82-11.46 7.69-17.31 11.34-1.76 1.1-3.37 2.55-5.66 2.87-4.96.68-9.1 2.18-9.85 8.34-.31 2.55-3.43 3.2-5.8 2.99-2.22-.2-2.7-2.15-2.94-4.24-.23-1.97-.21-3.83.62-5.58 3.32-7.03 7.41-13.58 12.77-19.26.48-.51 1.24-1.31 1.68-1.2 5.28 1.34 5.78-2.61 6.69-5.99.46-1.71 1.46-3.03 2.62-4.18 6.02-6.02 12.07-12.07 20.54-14.65 1.38-.42 1.63-1.37 2.06-2.53 1.58-4.24 4.38-7.73 7.45-10.95 2.31-2.43 4.2-6.11 8.78-3.73.66.35 2.34-.54 3.14-1.29 4.47-4.17 9.9-7.32 12.88-13.1 1.64-3.18 5.23-4.78 8.23-6.62 4.84-2.97 9.98-5.46 14.21-9.36 2.65-2.44 5.44-.95 8.08-.19 1.82.52 4.11-1.11 5.35.78.99 1.52 1.2 3.55 1.96 6-7.39-2.41-12.39-.27-17.91 4.18h-.04Zm5.17 7.8c5.92 2.61 5.94 2.81.34 7.77 1.1-2.74-.97-5.19-.34-7.77m9.93 111.69c-1.21-.15-2.13-.93-2.38-2.06-.23-1.03.8-.79 1.38-.76 1.05.05 1.61.66 1.63 1.73-.21.38-.46 1.12-.63 1.1Zm8.03-10.28c-.53 1.51-1.24 2.97-1.95 4.42-.55 1.14-1.55 1.98-2.71 1.15-1.3-.93-.35-2.08.38-2.91 1.05-1.19 2.24-2.26 3.06-3.07.91-.43 1.41-.14 1.21.41zm20.25-7.32c-.38.67-.7 1.95-1.64 1.17-.78-.64.06-1.51.81-2.02 1.61-3.32 2.58-7.14 7.17-9.74-.53 5.52-3.19 8.2-6.34 10.59M2151.19 308.98c-.06-2.17-.56-3.97-2.92-5.2-5.96-3.1-12.07-5.42-18.87-5.66-1.65-.06-3.4.07-4.77-1.13-4.9-4.32-10.17-3.48-15.9-1.78-6.28 1.86-12.85 2.05-19.27 4.2-13.02 4.37-24.18 11.06-33.23 21.19-5.86 6.56-13.39 11.07-19.83 16.93-5.57 5.07-14.24 6.11-19.4 12.38-13.95 6.52-26.92 15.37-42.65 17.63-3.41.49-5.98 2.49-6.37 6.58-1.24-2.4-1.06-4.51.14-6.33 2.62-3.97 4.67-8.5 8.34-11.52 4.32-3.55 7.99-7.2 8.96-12.99.18-1.04 1.16-2.22 2.11-2.8 8.8-5.39 14.44-13.5 19.78-22.02 1.54-2.46 2.89-4.34.85-6.94-2.07-2.65-4.52-3.99-8.04-2.74-4.32 1.52-7.2.92-9.37-2.63-1.26-2.06-2.69-2.7-4.59-2.36-5.1.93-10.32-1.87-15.46.95-1.95 1.07-4.78-.15-6.77-1.37-4.62-2.84-9.94-5.44-13.47-8.92-3.93-3.87-8.2-5.63-12.69-7.92-3.03-1.55-5.36-1.21-8.02.19-10.17 5.34-19.02 12.54-27.88 19.74-1.38 1.12-3.33 2.22-2.11 4.63 1.11-.02 2.28 0 2.36 1.46.05.75-.63 1.03-1.36.92-1.3 1.35-2.52 2.81-3.94 4.03-4.54 3.86-9.23 7.54-13.69 11.48-1.64 1.45-5.41 3.35-.12 5.23 1.35.48.77 1.45.19 2.2-4.99 6.45-12.67 10.67-15.61 18.82-4.9 1.03-6.82 5.34-9.68 8.65-1.07 1.24-2.38 2.28-4.02 2.89-2.23.83-3.69.71-5.51-1.4-3.36-3.93-3.8-9-6.14-13.25-4.31-7.83-3.11-15.45-.03-23.29 1.39-3.54 2.33-7.24 4.35-10.52.88-1.44 1.5-2.98 1.56-4.69.11-3.14-1.41-4.07-4.56-2.95-.86.31-1.09 2.3-2.58 1.08-.1-7.41 4.5-13.63 4.81-20.84.06-1.31.85-2.15 2.34-2.07 8.78.5 13.02-6.13 16.7-12.04 7.51-12.08 8.01-18.82 3.91-31.89-1.14-3.63-2.65-6.87-7.63-8.2-5.66-1.51-11.57-.66-16.84-2.5-8.19-2.85-15.49-.44-22.99 1.9-2.26.7-4.31 2.11-6.59 2.66-12.83 3.06-22.24 12.52-33.82 17.98-7.39 3.48-13.74 9.14-20.69 13.62-10 6.44-20.4 12.19-30.95 17.68-1.86.97-4.6 1.71-4.36 4.18.44 4.47-2.75 5.69-5.57 7.28-3.96 2.24-7.45 5.12-11.2 7.62-6.24 4.16-10.18 10.6-15.99 15.13-3.32 2.59-7.31 4.67-5.61 10.28.51 1.7-1.66 3.33-2.9 4.71-3.84 4.25-7.13 8.87-10.34 13.61-1.6 2.37-2.71 5.91-6.28 6.33-3.31.38-4.47 2.64-4.86 5.26-.54 3.58-2.38 6.01-5.17 8.12-2.43 1.84-4.31 4.64-1.85 7.28 2.37 2.54 1.89 4.66.63 7.03-1.79 3.38-1.79 7.31-3.84 10.7-1.82 3 .75 5.98 4.42 5.61 1.51-.15 3.08-1.54 4.26.54-2.67 3.98-2.24 7.38 1.28 10.19 6.26 5 12.72 7.89 20.66 3.33 3.9-2.24 8.14-3.88 12.98-2.85 2.19.47 4.05-1.14 5.93-2.14 13.43-7.16 26.89-14.28 40.27-21.54 13.18-7.14 25.98-14.82 36.28-26.02 3.57-3.88 7.71-2.93 10.15 2.32.59 1.26.83 2.76.88 4.17.27 7.56 6.2 13.95 4.45 21.91 4.47 2.06 2.67 6.54 3.71 9.89 1.52 4.89 3.58 6.03 7.24 2.83 1.93-1.69 3.12-2.24 5.49-.93 5.47 3.03 11.37 3.04 17.39 1.82 5.56-1.13 11.05-2.48 16.89-1.98 3.79.32 7.51-1.24 10.81-3.25 5.98-3.63 12.78-5.6 18.47-10 3.39-2.62 7.13-5.67 12.09-5.55 1.25.03 1.75-1.43 2.56-2.29 3.59-3.8 7.43-7.34 9.68-12.23.78-1.7 2.11-3.41 4.22-3.52 3.61-.19 4.53-2.87 5.78-5.49 3.57-7.49 6.35-15.42 11.91-21.81 2.56-2.94 4.59-6.71 9.6-5.89 1.42.23 2.52-1.18 3.76-1.88 3.77-2.1 7.81-3.51 12.14-3.89 4.73-.41 7.55 2.99 5.05 6.94-3.46 5.44-5.64 11.48-8.98 16.95-5.17 8.48-12.1 15.76-16.44 24.85-1.41 2.94-2.98 7.33-8.32 5.49-1.23-.43-2.37 1.2-3.05 2.57-2.61 5.3-3.55 10.94-2.52 16.68 1.65 9.16 8.69 13.86 18.03 12.41 1.41-.22 2.73-.5 4.21-.16 3.19.73 6.29-.27 8.92-1.81 9.04-5.26 18.41-9.75 28.11-13.69 4.35-1.77 8.51-4.21 12.72-6.34 7.06-3.56 12.88-9.98 21.59-10.07.76 0 1.65-.92 2.22-1.62 2.86-3.52 6.88-5.09 10.95-6.41 4.43-1.44 7.98-4.03 11.15-7.3.94-.97 1.67-2.5 3.94-1.27-2.06 9.48.1 19.09.53 28.74.2 4.42 1.3 8.68 6.76 10.59 2.29.8 5.16.93 7.03 2.75 3.9 3.8 8.45 3.8 13.31 2.79 1.62-.34 3.42-.88 4.93-.51 7.17 1.78 12.92-.87 18.28-5.23 3.13-2.54 6.88-3.71 10.47-5.24 1.88 4.8-3.37 4.57-4.44 7.2 2.34.67 3.63-.52 5.05-1.26 8.28-4.34 15.08-10.76 22.66-16.08 3.66-2.57 7.03-6.09 11.11-7.42 6.56-2.13 11.81-6.01 17.21-9.88 1.18-.85 2.22-1.8 2.76-3.2.47-1.21.47-2.36-.66-3.19-.82-.6-1.79-.68-2.66-.06-2.46 1.78-5.55 2.76-7.11 5.67-.56 1.02-1.48 1.16-2.36.65-.71-.41-.63-1.13-.05-1.71 1.11-1.8 2.03-3.78 3.38-5.4 3.9-4.67 5.05-10.76 8.1-15.7 3.5-5.65 2.61-10.99 2.01-16.77-.24-2.29.45-4.72.96-7.03 1.08-4.93 1.26-9.92 1.11-14.93zm-156.95 13.76c.34-.82.95-1.62 1.91-1.6.26 0 .49 1.01.69 1.44-.41 1-.77 1.93-1.88 1.69-.7-.15-.99-.89-.72-1.54Zm-13.8-12.67c1.1.08 2.68.55 2.59 1.82-.13 1.9-1.99 1.38-3.15 1.59-1.16-.29-2.86.05-2.67-1.59.19-1.6 1.87-1.91 3.23-1.82m-5.96 10.76c.04-.09.43-.12.61-.05.58.2.65.58.25 1.06-.37.04-.75.09-1.12.13.08-.38.12-.78.26-1.14m-298.82 83.12c-1.19.78-2.9 1.63-3.66-.02-.91-1.97 1.15-1.96 2.41-2.41 1.31-.47 2.53-1.16 4.57-2.11-.42 2.9-1.97 3.66-3.31 4.54Zm4.59-43.67c-1.56 1.65-3.17 3.26-4.75 4.89-.01-.08 0-.14-.02-.22.13-2.44-.6-5.1 1.45-7.22.87-.9 1.43-2.79 3.09-1.15 1.05 1.04 1.45 2.4.23 3.69Zm2.41 46.67c3.78-7.13 4.77-7.48 12.81-4.25-4.29 2.7-8.38 3.59-12.81 4.25m158.95-148.87c.32 0 .64.5.96.77 0 .78-.37 1.35-1.14 1.37-.31 0-.85-.47-.9-.79-.12-.73.28-1.37 1.08-1.35m-15.29-10.69c-4.06.32-7.56-2.38-11.35-.8 5.74-5.33 6.43-5.28 11.35.8m-61.43 26.42c-2 3.78-5.65 5.62-9.12 7.67l-.02-.02c.66-5.36 5.88-5.36 9.14-7.66Zm-36.84 27.59c.6-1.31 1.57-2.21 3.14-1.88.21.04.29.73.44 1.14-.78 1.08-1.47 2.36-3.14 1.83-.25-.08-.56-.84-.44-1.1Zm-19.73 18.1c.45-.62 1.29-.3 1.77.28.65.79.83 1.78.22 2.58-2.33 3.01-5.59 4.75-9.7 7.13.73-5.91 5.44-6.9 7.71-9.98Zm-1.98 32.77c1.8-1.02 3.25-2.74 5.97-3.07-.27 3.82-3.36 5.6-5.21 7.99-4.67 6.06-4.79 5.97-1.24 12.61-3.84.35-5.66-.82-5.5-4.21.26-5.21.76-10.38 5.97-13.32zm-6.4 39.74c2.71-2.19 4.36-5.72 8.17-6.44 5.9-6.77 13.22-11.3 22.05-13.48-7.09 4.56-14.17 9.13-21.25 13.7-2.08 3.41-5.7 4.55-8.97 6.22m28.27-7.77c-1.11 2.95-2.77 5.2-7.12 5.38 1.69-3.51 4.07-4.85 7.07-5.44.63-1.19 1.29-2.36 2.68-2.84.11 1.88-1.7 1.99-2.63 2.9m49.42-45.19c-.41.2-.88.27-1.33.4-3.77 8.54-12.2 10.93-19.4 14.96 6.7-4.75 11.69-11.59 18.94-15.64.26-.38.46-.83.8-1.12.66-.56 1.6-1.5 2.27-.53.64.93-.48 1.53-1.29 1.93zm13.94 3.08c-.87-.5-.95-1.21-.47-1.78 1.06-1.25 2.17-2.55 4.79-1.94-.93 2.45-2.48 3.32-4.32 3.72m11.96 21.08c-1.03 2.33-1.94 4.72-2.92 7.13-5.63-3.67-5.92-3.76-4.21-9.14.85-2.68 0-6.17 3.17-8.5 1.7 2.52 1.08 5.88 4 7.37 1.18.61.45 2.03-.04 3.14m25.08-3.34c0-1.24 1.17-2.45 2.37-2.04 1.7.58 2.11 2.35 2.13 3.9-.17.99-.68 1.53-1.46 1.42-1.84-.27-3.05-1.46-3.05-3.28zm4.55-46.28c-4.24-4.27-4.2-5.63 1.04-10.06.55 4.04 1.11 7.17-1.04 10.06m-.19 63.8c-.97-.4-1.82-1.53-1.74-2.77.07-1.1 4.93-4.58 5.89-4.32 1.47.39 1.38 1.65 1.4 2.82-.28 1.82-4.04 4.9-5.55 4.27m-14.07-75.94c2.8-4.41 5.48-7.07 8.72-9.03 4.23-2.55 7-6.38 9.99-10.09.85-1.05 1-2.08.47-3.27-.24-.02-.61-.14-.7-.03-6.24 7.65-16.26 10.51-22.74 17.87-1.76 2-4.57 2.16-6.56 4.11-4.46 4.35-11.22 6.5-12.45 13.84-.12.7-1.35 1.27-2.15 1.78-6.96 4.52-12.53 10.97-20.23 14.47-.85.39-2.07.89-2.29 1.6-2.31 7.47-9.12 9.2-15.12 11.71-2.08.87-3.41 1.77-3.36 3.87.07 3.25-2.08 4.66-4.45 5.8-4.2 2.03-7.98 4.91-13.21 4.53-3.42-.25-5.43 3.9-8.77 4.42-3.62.57-3.77-6.03-9.23-3.4 5.64-9.28 12.39-15.17 21.27-18.56 1.71-.65 4.17-.47 3.56-3.33-.59-2.79-3.25-1.08-5.2-2.14 6.2-5.28 13.36-8.94 19.38-14.19 6.25-5.45 13.26-10.02 19.96-14.94.97-.72 2.43-1.49 2.02-2.65-1.6-4.51 1.74-5.1 4.55-6.42 3.44-1.62 6.58-3.99 10.14-5.19 5.7-1.92 9.88-5.12 14.13-9.55 4.52-4.71 10.28-9.29 17.76-9.75 1.32-.08 2.77-.9 3.82-1.77 1.89-1.58 3.35-3.17 5.68-.38 1.01 1.21 2.95 1.36 4.65.45 1.05-.57 1.97-2.68 3.43-.78 1.15 1.49 2.19 3.23.77 5.19-.83 1.15-1.72 2.24-2.59 3.36.81 1.38 3.48 2.81 2.38 3.92-2.13 2.15-.65 6.17-3.69 7.17-6.94 2.28-11.57 8.32-19.94 11.41zm30.94 78.37c-.51 2.16-2.25 2.67-4.69 2.88.07-2.8 1.18-4.01 3.38-4.08.74-.03 1.48.44 1.3 1.21Zm14.3-6.31c-1.19 1.26-3.17 2.36-4.33.94-1.73-2.13 1.06-2.53 2.19-3.39.91-.71 2.05-1.11 3.58-1.9.39 2.18-.49 3.35-1.44 4.36Zm33.32-42.43c.81-.15 1.31.36 1.18 1.17-.11.74-.63 1.19-1.5 1.14-.24-.24-.75-.5-.78-.81-.07-.73.37-1.36 1.1-1.49Zm-8.69 33.47c3.94-7.86 10.91-16.58 14.51-18.62-1.71 6.77-6.54 13.19-14.51 18.62m15.17-53.7c1.77-4.41 4.13-6.02 8.7-7.29-2.62 3.62-4.85 5.39-8.7 7.29m3.73 28.68c-.7-.23-.97-1.03-.7-1.66.43-1.01.95-2.28 2.42-1.65.46.19.64 1.06.9 1.53-.58 1.26-1.2 2.25-2.61 1.78zm8.78-28.6c-1.03 1.3-2.15 2.53-4.02 2.34-.29-.03-.82-.71-.75-.94.7-2.32 2.34-3.12 5.06-2.92-.2 1.07-.18 1.35-.3 1.51h.01Zm10.36-10.97c-.55 1.22-1.64 1.48-2.8 1.44-.78-.03-1.38-.59-1.01-1.34.53-1.06 1.55-1.67 2.79-1.55.77.07 1.19.6 1.02 1.44Zm2.6-6.22c-.78-.2-2.01.14-1.81-1.34.12-.87.94-1.05 1.62-1.08.99-.03 1.87.34 1.81 1.55-.05 1.08-.96.76-1.62.86Zm8.33.36c-.32 0-.64-.42-.96-.66.27-.29.54-.79.83-.81.3-.02.63.44.94.7-.27.28-.53.78-.8.78Zm-9.85 107.22c-.31.05-.87-.25-1-.53-.28-.61-.04-1.17.64-1.46.35.21.85.34 1.01.64.34.63.08 1.24-.65 1.35m1.68-14.9c-.3.86-.63 1.73-1.74 1.76-.17 0-.48-.25-.48-.39-.04-1.06.63-1.61 1.54-1.94.47-.63.79-1.95 1.81-.79.37.42-.43 1.13-1.12 1.36zm17.29-3.51c.18-.93.7-1.7 1.72-1.85.1-.02.32.71.48 1.09-.27.91-.71 1.7-1.75 1.8-.13.01-.52-.72-.46-1.05h.01Zm-5.77 19.51c1.66-3.97 4.9-5.53 8.98-5.82-2.99 1.94-5.99 3.88-8.98 5.82m20.92-84.96c1.08.1 2.67-.13 2.7 1.43.02 1.32-1.32 1.66-2.51 1.76-1.32-.05-2.35-.76-2.34-2 .01-1.03 1.22-1.27 2.16-1.19zm-6.5 54.4c-.54 2.61-1.01 4.44-4.12 5.14.02-3.09 1.43-4.2 4.12-5.14m-2.7 18.59c1.17-6.13 4.54-8.42 13.11-9.11-3.78 3.71-8.18 6.23-13.11 9.11m15.14.32c1.39-1.44 2.71-3.19 5.63-3.25-1.23 2.73-4.09 2.01-5.63 3.25m43.75-26.41c2.25-1.77 4.39-3.91 8.68-4.19-2.34 3.89-5.66 3.73-8.68 4.19m20.02-11.38c-1.11 1.56-2.58 2.72-4.27 3.58-2.74 1.39-2.31-1.11-2.89-2.37-.86-1.05-4.21-1.03-1.41-3.65 1.77-1.66 3.91-2.26 5.94-3.25.88 1.69-1.18 2.91.02 4.25.91-.13 1.91-.55 2.69-.29.75.24.34 1.16-.07 1.73Zm5.71 8.39c-.51 1.04-1.31 1.13-2.3.74-.63-.25-.7-.56-.31-1.11.58-.81 1.21-1.39 2.27-.85.53.27.63.7.34 1.22m-.03-13.43c-.59.22-1.03.02-.95-.55.06-.37.46-.78.82-.99.53-.3 1.03-.02.95.54-.05.36-.53.67-.82.99Zm5.25 35.39c.46-3.68-2.26-7.84 1.2-11.6 3.9 4.56.87 8.06-1.2 11.6m7.35 15.61c-.91.11-2.16.1-2.16-1.03 0-1.63 1.46-2.29 2.82-2.73 1.03-.33 1.81.09 2.1 1.53 0 1.54-1.26 2.07-2.76 2.24Zm2.41-50.33c-.95-.22-1.68-.98-1.55-1.93.21-1.56 1.35-2.32 2.9-2.23 1.14.07 1.4.95 1.37 2.04-.33 1.34-.92 2.54-2.72 2.12m15.13 31c-1.96.71-2.83 3.18-6.47 3.15 1.92-2.41 3.16-4.09 4.54-5.65.72-.82 1.68-.81 2.36.15.63.88.58 1.99-.42 2.36h-.01Zm2.58-16.81c-.3.05-.98-.44-1.02-.74-.34-2.48.95-3.78 3.63-4.45.42 2.91-.02 4.74-2.61 5.19m44.7 14.27c-.2-.05-.47-.79-.36-1.05.39-.88 1.15-1.38 2.12-1.07.25.08.32.7.48 1.08-.58.74-1.29 1.27-2.25 1.04zm2.47-27.6c-.16 3.49-3.43 7.77-2.22 13.12.32 1.42-2.45 3.91-4.25 5.37-6.46 5.23-13.81 8.07-22.22 6.3-4.73-1-5.58-3.67-2.84-7.9.69-1.06 1.57-2.17.73-3.14-3.17-3.63.05-6.27 1.47-8.9 1.78-3.29 4.59-5.94 5.63-9.78.46-1.7 2-3.38 4.39-1.8 3.54 2.33 3.96-.21 4.28-2.82.53-4.28 1.66-5.09 5.48-3.94 6.6 1.99 10.43 6.77 9.55 13.49m4.74-41.4c-1.25-.65-1.54-1.75-.62-2.88.81-1 2.09-1.45 3.1-.62 2.09 1.71 3.98 3.67 5.96 5.53-3.74.88-6.02-.77-8.44-2.02Zm10.44 49.03c-.45.76-1.13 1.62-2.11 1.36-1.44-.38-1.16-1.75-1.07-2.79.09-1.06.77-1.55 1.88-1.03 1.06.47 2.15 1.01 1.3 2.46"/><path d="M586.92 341.85c2.59-3.87 3.61-8.78 5.47-13.16 2.08-4.9 1.26-9.82.87-16.8-4.22 5.18-9.07 6.62-12.79 9.95-2.09 1.87-4.68 3.26-7.23 4.49-1.2.58-2.78.51-2.45-1.94.45-3.37-1.85-4.04-3.73-2.1-3.4 3.49-5.7 2.19-8.12-.79-2.3-2.84-6.13-4.86-5.17-9.49.17-.84-.46-1.27-1.08-1.64-5.29-3.23-5.39-8.24-5.13-13.68.16-3.3 2-6.59.79-9.81-1.56-4.11-.64-7.95.43-11.83 2.63-9.59 6.17-18.96 7.16-28.96.3-3.03 1.6-5.44 4.4-6.9 4.83-2.52 9-5.97 12.95-9.54 3.52 2.19.54 5.95 2.15 8.38 1.79.04 2.58-.82 2.69-2.1.24-2.84.5-5.7.39-8.54-.08-1.94-.06-3.48 1.19-5.27 2.74-3.94 2.38-5.69-2.19-7.39-2.75-1.02-3.64-2.82-4.54-4.94-1.2-2.84-2.18-5.78-3.19-8.69-2.43-7.02-9.66-10.05-15.84-6.24-4.4 2.71-9.06 2.92-13.61 1.73-2.49-.65-4.48-.66-6.83.04-12.79 3.8-24.96 9.09-36.94 14.93-9.91 4.83-18.05 12.34-27.58 17.75-10.15 5.75-18.36 14.27-28.26 20.42-.58.36-1 .99-1.43 1.54-8.3 10.42-18.13 19.35-28.16 27.98-7.36 6.33-13.8 13.23-17.34 22.26-6.11 15.55-13.95 30.56-15.65 47.56-.13 1.32-.82 2.16-1.55 3.08-1.21 1.52-1.39 3.03.3 4.31 1.29.99 1.42 2.37 1.64 3.8.67 4.4 2.57 8.11 6.03 11.01.88.74 1.75 1.76 2.07 2.82 1.34 4.48 3.91 6.92 8.87 6.33 1.75-.21 3.2.39 3.73 2.47.85 3.32 3.49 3.05 5.73 2.12 4.36-1.8 8.77-3.65 12.75-6.14 7.43-4.65 14.52-9.84 21.82-14.69 18.6-12.36 36.83-25.22 53.63-40 2.13-1.87 4.46-3.48 7.94-3.65.28 3.99.55 7.71.79 11.42.36 5.48 1.33 10.76 3.33 15.96 2.32 6.03 7.52 8.82 12.01 12.63 4.84 4.11 10.01 6.15 16.27 5.92 2.37-.09 5.04-.47 7.07.43 6.5 2.88 12.66 1.44 18.74-.81 4.22-1.56 8.37-3.5 12.22-5.81 3.6-2.16 6.52-5.49 10.19-7.49 4.57-2.5 2.9-7.48 5.21-10.93zm-202.3 21.87c-.8.02-1.22-.59-1.43-1.28-.22-.7-.23-1.54.61-1.72 1.18-.25 1.58.74 1.93 1.64.18.9-.32 1.33-1.1 1.35Zm53.84-74.97c-9.52 8.03-20.59 13.34-31.24 19.37 9.31-8.28 20.31-13.86 31.24-19.37m-27.05 46.83-.5.34.07-.55.44.22h-.01Zm-4.7 1.88c.32-.08 1.09.3 1.09.49.05 1.14-.76 1.6-1.75 1.82-.4-.19-1.12-.36-1.14-.59-.12-1.22.93-1.49 1.8-1.73Zm-10.32 27.01c2.65-2.2 4.5-5.88 8.96-4.8.55-1.19.72-2.75 2.61-2.73.08 1.84-2.04 1.55-2.59 2.74-2.13 3.18-4.38 6.12-8.97 4.78Zm12.02 5.14c-1.37.55-3.02.15-3.49-1.45-.58-1.98 1.18-2.55 2.5-2.35 4.1.62 7.03-2.03 10.57-3.17-2.28 3.72-5.88 5.47-9.58 6.97m10.99.03c-.29.1-.74-.25-1.12-.4.22-.34.38-.89.67-.97.32-.09.77.23 1.16.37-.23.35-.4.88-.72 1Zm8.15-4.88c-.17.27-.74.29-1.14.42-.59-.22-.73-.63-.27-1.03.31-.27.77-.36 1.16-.54.1.4.4.92.25 1.15m-22.07-12.19c-2.94 2.91-6.42 5-10.27 6.53 2.5-3.27 5.55-5.73 9.63-6.75 6.78-5.98 14.86-9.78 22.92-13.62-6.42 6.25-14.4 9.98-22.29 13.83Zm25.06 8.72c2.01-2.33 4.29-4.18 7.36-5.53-1.25 2.89-3.7 4.74-7.36 5.53m-2.27-36.22c-.42 1.08-1.37 2.08-1.42 3.15-.07 1.39.55 2.85-1.61 3.02-1.69.13-1.53-1.46-2.2-2.3-1.04-1.29-1.39-2.35.25-3.42.98-.64 1.89-1.4 2.77-2.18 1.17-1.05 1.9-2.53.51-3.62-3.36-2.66-1.29-4.46.83-6.11 3.7-2.89 7.55-5.59 12.19-9.01-3.88 7.55-8.62 13.46-11.31 20.48Zm125.22 15.77s-.03-.01-.04-.02l.03-.06v.08Zm-27.27-56.29c-.56-3.38.81-6.91 4.1-10.58-.42 4.5-2.15 7.02-4.1 10.58m1.78 60.23c-.36.21-.73.59-1.1.59-.59 0-.81-.49-.44-.96.26-.33.73-.69 1.1-.68.51 0 .65.51.43 1.05zm3.83-7.46c2.13-7.02 5.07-13.65 9.5-20.43 2.73 5.32-1.28 8.12-3.16 11.06-2.02 3.15-3.3 6.9-6.33 9.38l-1.64 2.75h-.01c.55-.93 1.09-1.85 1.64-2.76m10.4-26.41c-4.04 3.75-6.63 8.1-10.24 13.4-.33-4.68 2.27-7.05 2.84-10.02.66-3.5 3.09-4.96 7.41-3.38zm-5.04-21.9c.48-.21.68.03.59.71-.14 1.02.64 2.34-.89 2.91-.12.04-.46-.19-.51-.36-.42-1.26.46-2.2.82-3.26zm-.14 8.27c2.11 4.86-1.47 6.96-4.05 10.26-.58-4.61.63-7.69 4.05-10.26m-2.48-70.78c-4.25 3.32-7.27 5.37-11.14 6.46 1.31-4.94 3.17-6.13 11.14-6.46m-73.3 51.32c1.49.24 2.23-.07 6.03-1.67-2.19 2.34-3.57 3.8-4.65 4.96-2.69 0-.61-2.46-1.38-3.29m1.52-2.96c-1.04.72-2.68.87-2.78 2.59-.79-1.64-2.5-.13-3.54-.94 1.17-.71 1.34-2.21 2.81-2.89 5.09-2.34 10.04-5.01 15.51-6.89-4.01 2.7-8.02 5.39-12.01 8.13zm-11.71-18.65c3.86-4.41 11.74-8.5 19.53-9.64-6.82 4.28-12.43 8.11-18.88 10.5-.49.33-1.18.88-1.56.28-.39-.6.27-1.01.92-1.14zm4.26 31.56c-4.33 3.66-6.95 9.26-12.43 11.62 1.71-6.63 7.98-8.09 12.43-11.62m-8.42 53.96c-.38.4-1.04.53-1.58.78l-.33.18.26-.27c.03-.71.41-1.2 1.07-1.35.5-.12.88.34.58.65Zm3.16-3.07c2.07-1.7 2.76-3.08 4.41-2.78-.58 1.37-1.65 2.12-4.41 2.78m11.46-6.85c-1.83-2.59-.38-3.56.8-4.79 8.7-9.07 19.02-16.18 29.12-23.59-9.13 10.35-18.53 20.39-29.92 28.38m38.05-22.96c-.56-.2-.69-.64-.43-1.18.47-.95 1.19-1.54 2.26-1.13.25.1.29.77.42 1.18-.48.92-1.14 1.52-2.26 1.12Zm1.22-30.73c-5.75 5.39-11.2 11.43-16.32 17.59-.91 1.09-1.57 2.89-2.69 3.23-6.27 1.91-9.94 7.17-14.57 11.09-6.25 5.29-13.31 8.91-21.34 12.67.14-3.98 2.12-6.2 3.12-8.79.37-.95 1.17-1.74 2.15-1.55 4.32.82 5.5-.51 3.28-4.45-.35-.61-.52-1.24-.03-1.95.76-1.1 5.58 2.14 2.87-3.12-1.27-2.47 3.52-2.3 4.81-3.93 2.46-3.11-2.01-1.83-2.43-3.37 8.45-6.09 16.65-12.75 23.28-20.72 6.49-7.8 14.16-14.05 22.54-19.03 7.72-4.58 14.18-11.16 22.72-14.32 1.34-.5 3.04-2.34 4.34-.14.96 1.61.09 3.26-1.08 4.54-1.12 1.22-2.23 2.65-3.65 3.36-2.51 1.25-3.82 3.59-5.34 5.57-6.49 8.48-13.86 15.98-21.67 23.3v.02Zm21.93 10.08c-.47 4.13-3.39 6.87-5.82 10.52-.68-5.28 2.77-7.78 5.82-10.52m1.05 70.68c-1.57-2.46-5.19-2.6-6.15-5.56-.72-2.22-1.37-4.45-2.48-8.08 1.41 1.93 2.02 2.64 2.49 3.43 2.22 3.7 3.2 8.94 10.58 6.12-1.76 2.94-4.3 4.33-4.45 4.1h.01Zm5.63 1.32c-.13-.27.17-1.07.37-1.11 1.69-.33 3.17-.01 4.36 2.15-2.25.74-3.82.89-4.73-1.04m7.16-8.37-.73-.47c3.75-6.65 7.47-13.31 11.26-19.93.67-1.17 1.75-1.59 2.9-.55 1.07.96 1.05 2.15.08 3.1-3.39 3.33-6.39 6.96-8.86 11.04-1.42 2.35-3.1 4.55-4.66 6.82Zm8.75 2.86c-.7 1.88-2.32 4.35-6.46 2.85 4.46-4.47 6.31-10.77 11.86-13.76-1.18 3.9-3.96 7.08-5.39 10.9Zm8.52-15.63c.11-1.89-.15-4.04 3.14-4.22.23 2.28-2.15 2.86-3.14 4.22m12.34 19.43c-2.45 3.31-6.14 3.86-10.37 4.83 3.66-3.02 5.61-3.9 10.34-4.87.53-2.26 1.69-3.84 4.32-4.06-.43 2.52-2.19 3.48-4.29 4.09Zm12.16-26.08-7.97 7.73-1.47 1.26c-.47-1.47.78-1.07 1.43-1.31 1.84-3.34 1.48-8.55 7.26-8.54.1-.21.16-.45.3-.62.92-1.04 1.87-2.09 3.42-2.02.19.01.55.69.5 1.01-.27 2.02-1.65 2.59-3.48 2.49ZM1290.45 264.09c3.83-1.48 7.17-3.67 10.23-6.39 1.56-1.38 3.07-2.72 5.29-3.4 9.17-2.8 17.49-6.98 22.3-15.96.91-1.7 2.03-3.4 3.81-4.14 7.94-3.3 7.37-10.16 6.61-16.63-.83-7.09-6.06-10.72-13.16-9.54-14.64 2.44-24.75 11.12-31.8 23.8 2.91.28 4.01-2.12 5.45-3.85 2.58-3.1 5.51-5.75 9-7.78.3-.33.54-.75.9-.97.53-.33 1.15-.53 1.73-.78.53 1.25-.36 1.52-1.24 1.74-.42.11-.88.08-1.32.11-2.4 6.92-8.78 10.68-12.76 16.86-2.2-1.66-.53-3.99-1.78-5.29-2.34 1.42-2.72 3.78-2.87 6.18-.09 1.41.51 3.04-.44 4.17-4.13 4.9-2.31 11.81-5.87 16.94-.87 1.25-.88 3.36.55 4.65 1.62 1.46 3.5 1.02 5.37.29Zm43.23-46.36c1.18 2.6-.56 4.15-2.71 6.16-1.37-3.28-2.49-5.95-3.82-9.13 3.84-1.5 5.44.57 6.53 2.97m-16.94 15.21c1.84-1.36 3.27-3.26 5.42-5.47 3.21 6.88-2.65 7.99-5.24 11.16-2.14-2.09-2.89-3.69-.19-5.68Zm-21.31 12.77c2.95 1.34 5.55-2.07 8.87-.67-2.41 2.66-5.24 3.13-8.28 3.02-.76-.03-1.3-.47-1.23-1.24.03-.4.6-1.13.65-1.11zm-6.57 12.71c.42-1.5 1.33-2.43 3.02-2.14.86.14 1.69.4 2.51.6-.2 1.27-.83 1.93-1.64 2.41-1.16.7-2.34 1.71-3.67.38-.25-.25-.33-.88-.22-1.25"/></svg>